<?xml version="1.0" encoding="utf-8"?>
<!-- Generator: Adobe Illustrator 17.0.0, SVG Export Plug-In . SVG Version: 6.00 Build 0)  -->
<!DOCTYPE svg PUBLIC "-//W3C//DTD SVG 1.1//EN" "http://www.w3.org/Graphics/SVG/1.1/DTD/svg11.dtd">
<svg version="1.1"
	 id="svg2985" xmlns:dc="http://purl.org/dc/elements/1.1/" xmlns:cc="http://creativecommons.org/ns#" xmlns:rdf="http://www.w3.org/1999/02/22-rdf-syntax-ns#" xmlns:svg="http://www.w3.org/2000/svg"
	 xmlns="http://www.w3.org/2000/svg" xmlns:xlink="http://www.w3.org/1999/xlink" x="0px" y="0px" width="134px" height="134px"
	 viewBox="0 0 134 134" enable-background="new 0 0 134 134" xml:space="preserve">
<rect id="rect3047" x="-60.769" y="39.231" transform="matrix(-0.7071 -0.7071 0.7071 -0.7071 90.6877 146.8141)" fill="#2369BD" width="273.038" height="30.788"/>
<path id="rect3753" fill="#74C2E7" d="M36.637-2.961l2.828,2.828l0.707-0.707l-2.828-2.828L36.637-2.961z M40.173,0.575l2.828,2.828
	l0.707-0.707L40.88-0.133L40.173,0.575z M43.708,4.11l2.828,2.828l0.707-0.707l-2.828-2.828L43.708,4.11z M47.244,7.646l2.828,2.828
	l0.707-0.707l-2.828-2.828L47.244,7.646z M50.779,11.181l2.828,2.828l0.707-0.707l-2.828-2.828L50.779,11.181z M54.315,14.717
	l2.828,2.828l0.707-0.707l-2.828-2.828L54.315,14.717z M57.85,18.252l2.828,2.828l0.707-0.707l-2.828-2.828L57.85,18.252z
	 M61.386,21.788l2.828,2.828l0.707-0.707l-2.828-2.828L61.386,21.788z M64.921,25.323l2.828,2.828l0.707-0.707l-2.828-2.828
	L64.921,25.323z M68.457,28.859l2.828,2.828l0.707-0.707l-2.828-2.828L68.457,28.859z M71.992,32.394l2.828,2.828l0.707-0.707
	l-2.828-2.828L71.992,32.394z M75.528,35.93l2.828,2.828l0.707-0.707l-2.828-2.828L75.528,35.93z M79.063,39.465l2.828,2.828
	l0.707-0.707l-2.828-2.828L79.063,39.465z M82.599,43.001l2.828,2.828l0.707-0.707l-2.828-2.828L82.599,43.001z M86.134,46.536
	l2.828,2.828l0.707-0.707l-2.828-2.828L86.134,46.536z M89.67,50.072l2.828,2.828l0.707-0.707l-2.828-2.828L89.67,50.072z
	 M93.206,53.608l2.828,2.828l0.707-0.707L93.913,52.9L93.206,53.608z M96.741,57.143l2.828,2.828l0.707-0.707l-2.828-2.828
	L96.741,57.143z M100.277,60.679l2.828,2.828l0.707-0.707l-2.828-2.828L100.277,60.679z M103.812,64.214l2.828,2.828l0.707-0.707
	l-2.828-2.828L103.812,64.214z M107.348,67.75l2.828,2.828l0.707-0.707l-2.828-2.828L107.348,67.75z M110.883,71.285l2.828,2.828
	l0.707-0.707l-2.828-2.828L110.883,71.285z M114.419,74.821l2.828,2.828l0.707-0.707l-2.828-2.828L114.419,74.821z M117.954,78.356
	l2.828,2.828l0.707-0.707l-2.828-2.828L117.954,78.356z M121.49,81.892l2.828,2.828l0.707-0.707l-2.828-2.828L121.49,81.892z
	 M125.025,85.427l2.828,2.828l0.707-0.707l-2.828-2.828L125.025,85.427z M128.561,88.963l2.828,2.828l0.707-0.707l-2.828-2.828
	L128.561,88.963z M132.096,92.498l2.828,2.828l0.707-0.707l-2.828-2.828L132.096,92.498z M136.759,135.521 M-1.127-2.364
	l2.828,2.828l0.707-0.707L-0.42-3.071L-1.127-2.364z M2.409,1.171L5.237,4l0.707-0.707L3.116,0.464L2.409,1.171z M5.944,4.707
	l2.828,2.828L9.48,6.828L6.651,4L5.944,4.707z M9.48,8.242l2.828,2.828l0.707-0.707l-2.828-2.828L9.48,8.242z M13.015,11.778
	l2.828,2.828l0.707-0.707l-2.828-2.828L13.015,11.778z M16.551,15.313l2.828,2.828l0.707-0.707l-2.828-2.828L16.551,15.313z
	 M20.086,18.849l2.828,2.828l0.707-0.707l-2.828-2.828L20.086,18.849z M23.622,22.384l2.828,2.828l0.707-0.707l-2.828-2.828
	L23.622,22.384z M27.157,25.92l2.828,2.828l0.707-0.707l-2.828-2.828L27.157,25.92z M30.693,29.455l2.828,2.828l0.707-0.707
	L31.4,28.748L30.693,29.455z M34.228,32.991l2.828,2.828l0.707-0.707l-2.828-2.828L34.228,32.991z M37.764,36.526l2.828,2.828
	l0.707-0.707l-2.828-2.828L37.764,36.526z M41.299,40.062l2.828,2.828l0.707-0.707l-2.828-2.828L41.299,40.062z M44.835,43.598
	l2.828,2.828l0.707-0.707l-2.828-2.828L44.835,43.598z M48.371,47.133l2.828,2.828l0.707-0.707l-2.828-2.828L48.371,47.133z
	 M51.906,50.669l2.828,2.828l0.707-0.707l-2.828-2.828L51.906,50.669z M55.442,54.204l2.828,2.828l0.707-0.707l-2.828-2.828
	L55.442,54.204z M58.977,57.74l2.828,2.828l0.707-0.707l-2.828-2.828L58.977,57.74z M62.513,61.275l2.828,2.828l0.707-0.707
	l-2.828-2.828L62.513,61.275z M66.048,64.811l2.828,2.828l0.707-0.707l-2.828-2.828L66.048,64.811z M69.584,68.346l2.828,2.828
	l0.707-0.707l-2.828-2.828L69.584,68.346z M73.119,71.882l2.828,2.828l0.707-0.707l-2.828-2.828L73.119,71.882z M76.655,75.417
	l2.828,2.828l0.707-0.707l-2.828-2.828L76.655,75.417z M80.19,78.953l2.828,2.828l0.707-0.707l-2.828-2.828L80.19,78.953z
	 M83.726,82.488l2.828,2.828l0.707-0.707l-2.828-2.828L83.726,82.488z M87.261,86.024l2.828,2.828l0.707-0.707l-2.828-2.828
	L87.261,86.024z M90.797,89.56l2.828,2.828l0.707-0.707l-2.828-2.828L90.797,89.56z M94.332,93.095l2.828,2.828l0.707-0.707
	l-2.828-2.828L94.332,93.095z M97.868,96.631l2.828,2.828l0.707-0.707l-2.828-2.828L97.868,96.631z M101.404,100.166l2.828,2.828
	l0.707-0.707l-2.828-2.828L101.404,100.166z M104.939,103.702l2.828,2.828l0.707-0.707l-2.828-2.828L104.939,103.702z
	 M108.475,107.237l2.828,2.828l0.707-0.707l-2.828-2.828L108.475,107.237z M112.01,110.773l2.828,2.828l0.707-0.707l-2.828-2.828
	L112.01,110.773z M115.546,114.308l2.828,2.828l0.707-0.707l-2.828-2.828L115.546,114.308z M119.081,117.844l2.828,2.828
	l0.707-0.707l-2.828-2.828L119.081,117.844z M122.617,121.379l2.828,2.828l0.707-0.707l-2.828-2.828L122.617,121.379z
	 M126.152,124.915l2.828,2.828l0.707-0.707l-2.828-2.828L126.152,124.915z M129.688,128.45l2.828,2.828l0.707-0.707l-2.828-2.828
	L129.688,128.45z M133.223,131.986l2.828,2.828l0.707-0.707l-2.828-2.828L133.223,131.986z"/>
<text transform="matrix(0.7071 0.7071 -0.7071 0.7071 36.5088 21.9959)" fill="#FFFFFF" font-family="'MyriadPro-Bold'" font-size="16">Advanced Map</text>
</svg>
