<?xml version="1.0" encoding="UTF-8" standalone="no"?>
<!-- Generator: Adobe Illustrator 15.0.0, SVG Export Plug-In  -->

<svg
   xmlns:dc="http://purl.org/dc/elements/1.1/"
   xmlns:cc="http://creativecommons.org/ns#"
   xmlns:rdf="http://www.w3.org/1999/02/22-rdf-syntax-ns#"
   xmlns:svg="http://www.w3.org/2000/svg"
   xmlns="http://www.w3.org/2000/svg"
   xmlns:sodipodi="http://sodipodi.sourceforge.net/DTD/sodipodi-0.dtd"
   xmlns:inkscape="http://www.inkscape.org/namespaces/inkscape"
   version="1.1"
   x="0px"
   y="0px"
   width="406px"
   height="501px"
   viewBox="-0.13 -0.15 406 501"
   enable-background="new -0.13 -0.15 406 501"
   xml:space="preserve"
   id="svg2"
   inkscape:version="0.48.5 r10040"
   sodipodi:docname="Heraldic_Lion_02.svg"><metadata
   id="metadata15"><rdf:RDF><cc:Work
       rdf:about=""><dc:format>image/svg+xml</dc:format><dc:type
         rdf:resource="http://purl.org/dc/dcmitype/StillImage" /><dc:title></dc:title></cc:Work></rdf:RDF></metadata><sodipodi:namedview
   pagecolor="#ffffff"
   bordercolor="#666666"
   borderopacity="1"
   objecttolerance="10"
   gridtolerance="10"
   guidetolerance="10"
   inkscape:pageopacity="0"
   inkscape:pageshadow="2"
   inkscape:window-width="1920"
   inkscape:window-height="1017"
   id="namedview13"
   showgrid="false"
   inkscape:zoom="0.33308822"
   inkscape:cx="172.4993"
   inkscape:cy="317.37926"
   inkscape:window-x="-8"
   inkscape:window-y="-8"
   inkscape:window-maximized="1"
   inkscape:current-layer="svg2" />
<defs
   id="defs4">
</defs>
<path
   id="Corpus_1_"
   fill-rule="evenodd"
   clip-rule="evenodd"
   fill="#683C11"
   d="M182.39,76.99l-0.02,0.04  c-0.56,1.7-0.9,3.18-1.01,4.47c-0.12,1.6,0.1,2.89,0.67,3.9c0.6,1.06,1.56,1.77,2.86,2.15h0.01c0.6,0.16,1.28,0.26,2.03,0.28  c3.54,0.1,6.45-0.28,8.73-1.12c2.27-0.84,3.94-2.12,5-3.86c1.05-0.42,2.1-0.8,3.13-1.1c1.06-0.33,2.09-0.6,3.09-0.79  c2.8-0.55,5.43-0.66,7.9-0.31c-4.7,0.71-9.99,3.02-15.9,6.94c-1.7,1.12-3.43,2.38-5.22,3.76c-1.76,1.35-3.58,2.86-5.47,4.5  c-7.71,4.62-14.26,5.2-19.65,1.74c-1.06-0.66-2.08-1.51-3.06-2.5c-0.99-1-1.94-2.16-2.84-3.47l-0.02-0.03l-0.76-1.23l-0.84,1.52  c-1.94,5.82-2.22,10.92-0.81,15.28c0.9,2.79,2.47,5.26,4.72,7.43l-0.43-0.16l-0.05-0.03c-3.14-1.67-6.61-3-10.37-3.98  c-3.77-0.99-7.85-1.63-12.22-1.92l0,0c-8.19-0.48-15.29,2.77-21.3,9.75c-0.87,1.02-1.65,2.02-2.38,3.01  c-2.25-1.19-4.36-2.5-6.35-3.91l-0.03-0.02l0,0c-1.55-1.01-3.11-1.99-4.69-2.9c-1.55-0.9-3.16-1.77-4.81-2.61  c-8.35-4.25-17.24-7.27-26.67-9.07c-3.67-1.15-6.08-2.57-7.21-4.3c-1.04-1.6-0.96-3.5,0.21-5.73c5.81-6.24,9.18-11.46,10.13-15.69  c1.02-4.5-0.63-7.83-4.93-10.01l-0.08-0.04l-0.09-0.03l-5.21-1.29c-1.43-3.49-3.53-5.87-6.29-7.17c-2.85-1.34-6.37-1.49-10.54-0.46  l-1.55,0.38l1.04,1.13c2.92,3.12,4.79,5.75,5.61,7.85c0.43,1.09,0.54,2.02,0.37,2.79c-0.25-0.55-0.51-1.06-0.77-1.55  c-0.52-0.94-1.09-1.79-1.7-2.54l0,0c-3.15-3.88-7.37-5.11-12.67-3.69c-1.1-0.27-2.19-0.48-3.26-0.63c-1.15-0.15-2.29-0.23-3.41-0.25  c-5.8-0.07-11.22,1.7-16.26,5.34l-1.74,1.26l2.05,0.35c3.7,0.63,6.58,1.45,8.64,2.48c1.42,0.71,2.42,1.5,2.99,2.35  c-0.41,0.16-0.81,0.33-1.2,0.51c-2.37,1.1-3.99,2.64-4.85,4.57c-0.85,1.91-0.93,4.19-0.25,6.82c0.15,0.57,0.34,1.16,0.56,1.78  c-3.3,0.46-5.89,2.05-7.73,4.7c-3.96,0.8-7.33,2.23-10.1,4.31c-0.48,0.36-0.94,0.74-1.35,1.1l0,0c-2.21,1.99-3.97,4.44-5.26,7.36  L0,106.17l1.77-0.51c3.48-1,6.56-1.29,9.25-0.89c2.32,0.35,4.35,1.23,6.09,2.64c-0.59,0.67-1.06,1.32-1.42,1.96  c-0.76,1.35-1.05,2.66-0.87,3.92c0.18,1.23,0.83,2.4,1.92,3.48c0.86,0.84,2,1.64,3.43,2.38l0.05,0.03l0.05,0.03h0.04  c0.9,0.33,1.79,0.61,2.66,0.83c0.88,0.22,1.76,0.39,2.63,0.52c4.44,0.61,8.71-0.1,12.79-2.15c1.33-0.2,2.57-0.36,3.71-0.46  c1.16-0.12,2.24-0.19,3.22-0.22c4.69-0.14,7.37,0.63,8.02,2.28c0.04,0.41,0.04,0.79,0.02,1.13c-0.04,0.72-0.22,1.28-0.51,1.64  c-0.25,0.33-0.65,0.53-1.18,0.61c-0.18,0.03-0.38,0.04-0.6,0.04h-0.09l-0.12,0.03c-1.1,0.23-2.07,0.56-2.92,0.96  c-1.82,0.84-3.1,2.04-3.84,3.58c-0.74,1.49-0.92,3.31-0.55,5.4c0.21,1.26,0.63,2.63,1.23,4.11c-0.44,1.16-1.84,2.26-4.19,3.34  c-0.52,0.23-1.09,0.48-1.72,0.71c-0.62,0.22-1.28,0.45-2,0.68h-0.04l-1.51,0.48l1.1,1.04c4.51,4.31,9.71,5.54,15.57,3.71  c1.13-0.35,2.28-0.81,3.45-1.39c0.83-0.41,1.7-0.89,2.56-1.42c0.22,0.65,0.46,1.24,0.73,1.77l0,0c0.82,1.65,1.91,2.76,3.26,3.34  c1.37,0.56,2.95,0.58,4.75,0.03c0.86-0.26,1.76-0.65,2.71-1.17l0.07-0.03l0.08-0.06l0.01-0.01c0.7-0.55,1.33-1.12,1.9-1.7l0,0  c0.57-0.59,1.07-1.22,1.48-1.83c0.57-0.84,1-1.7,1.3-2.57c0.25-0.09,0.5-0.13,0.74-0.17c1.28-0.23,2.34,0,3.2,0.67  c0.91,0.71,1.61,1.93,2.13,3.66c0.28,0.96,0.5,2.06,0.64,3.31l0,0l0.01,0.09c0.05,0.61,0.04,1.19-0.04,1.77  c-0.08,0.56-0.22,1.1-0.41,1.62c-1.06,2.75-3.88,5.02-8.44,6.81l-2.16,0.45l2,1.19c4.41,2.37,9.2,3.46,14.37,3.27l0,0  c4.73-0.18,9.76-1.43,15.1-3.74c-0.04,0.16-0.08,0.3-0.13,0.46c-0.17,0.56-0.45,1.1-0.81,1.61c-2.05,2.86-6.98,5.12-14.81,6.78  l-1.28,0.27l0.64,1.09l0.01,0.02l0.01,0.01c0.62,1.03,1.32,1.95,2.08,2.76c0.75,0.8,1.57,1.48,2.43,2.05  c4.41,2.85,10.19,2.47,17.31-1.15c0.61-0.09,1.18-0.15,1.73-0.17l0,0c0.53-0.03,1.04-0.03,1.53,0c6.69,0.38,17.04-2.27,25.86-4.8  c-3.8,4.83-10.39,9.99-13.41,11.8c-4.87,3.63-9.83,6.5-14.86,8.64l-0.04,0.01l0,0c-1.76,0.81-3.48,1.67-5.17,2.55  c-1.67,0.87-3.34,1.8-5.01,2.8c-8.44,4.99-16.15,11.05-23.14,18.14c-3.1,2.55-5.71,3.89-7.83,4.01c-1.94,0.1-3.53-0.89-4.75-2.98  c-1.92-7.95-4.41-13.35-7.43-16.2c-3.24-3.06-7.03-3.29-11.36-0.71l-0.08,0.04l-0.08,0.07l-4.12,3.78  c-3.78-0.48-7.02,0.13-9.73,1.83c-2.79,1.77-4.95,4.66-6.5,8.71l-0.57,1.5l1.55-0.33c4.36-0.96,7.66-1.26,9.92-0.93  c1.18,0.17,2.03,0.53,2.58,1.05c-0.61-0.06-1.19-0.09-1.76-0.1c-1.1-0.01-2.15,0.04-3.14,0.2l0,0c-5.11,0.77-8.61,3.75-10.48,8.93  c-0.86,0.79-1.66,1.61-2.41,2.45c-0.8,0.9-1.52,1.81-2.19,2.77c-3.42,4.86-5.05,10.32-4.88,16.34l0.06,2.09l1.48-1.55  c2.69-2.83,5.05-4.86,7.11-6.11c1.42-0.85,2.67-1.31,3.73-1.38c-0.1,0.43-0.2,0.85-0.26,1.26c-0.44,2.55-0.08,4.66,1.06,6.33  c1.13,1.66,3.01,2.83,5.64,3.53c0.57,0.16,1.19,0.29,1.84,0.39c-1.51,3.03-1.67,5.98-0.49,8.84c-1.61,3.74-2.33,7.3-2.18,10.64  c0.03,0.6,0.08,1.16,0.15,1.68l0,0c0.4,2.85,1.47,5.52,3.19,8.04l1.01,1.45l0.6-1.74c1.17-3.43,2.71-6.19,4.59-8.25  c1.65-1.8,3.58-3.09,5.78-3.88c0.22,0.83,0.51,1.54,0.84,2.16c0.7,1.29,1.63,2.18,2.81,2.64c1.16,0.45,2.52,0.47,4.07,0.08  c1.21-0.32,2.55-0.9,4.01-1.75l0.05-0.02l0.05-0.04l0.03-0.01c0.8-0.61,1.55-1.22,2.24-1.84c0.7-0.64,1.36-1.31,1.96-1.98  c3.1-3.47,4.97-7.42,5.59-11.87c0.61-1.22,1.19-2.34,1.75-3.37c0.58-1.03,1.14-1.97,1.69-2.83c2.59-4.03,4.79-5.94,6.58-5.67  c0.36,0.16,0.68,0.35,0.97,0.54c0.6,0.39,0.96,0.8,1.11,1.22c0.13,0.38,0.08,0.81-0.18,1.31c-0.07,0.16-0.18,0.33-0.32,0.54  l-0.04,0.07l-0.04,0.1c-0.44,1.04-0.73,2.03-0.89,2.95c-0.33,1.95-0.06,3.61,0.81,4.99c0.86,1.35,2.28,2.38,4.27,3.09  c1.19,0.44,2.6,0.76,4.2,0.96c0.72,0.94,0.86,2.67,0.41,5.17c-0.1,0.56-0.23,1.16-0.39,1.78c-0.17,0.65-0.36,1.32-0.58,2.03  l-0.01,0.03l-0.48,1.52l1.52-0.42c6.27-1.73,10.32-5.52,12.17-11.38c0.35-1.12,0.63-2.32,0.81-3.58c0.13-0.92,0.22-1.88,0.28-2.88  c0.67,0.13,1.32,0.23,1.92,0.26h0.01c1.87,0.1,3.45-0.28,4.72-1.15c1.26-0.87,2.19-2.21,2.77-3.99c0.27-0.86,0.46-1.81,0.58-2.87  l0.01-0.07l-0.01-0.09v-0.01c-0.06-0.87-0.17-1.68-0.35-2.44l0,0c-0.18-0.77-0.41-1.5-0.7-2.15c-0.38-0.87-0.86-1.65-1.43-2.33  c0.09-0.26,0.18-0.49,0.28-0.71c0.55-1.21,1.36-1.99,2.42-2.39c1.13-0.42,2.57-0.42,4.34-0.02c0.97,0.23,2.03,0.6,3.18,1.06l0,0  l0.07,0.04c0.55,0.26,1.04,0.55,1.48,0.9c0.43,0.33,0.81,0.72,1.13,1.15c1.72,2.24,2.02,5.72,0.91,10.45l-0.88,2.05l2.17-1.12  c4.57-2.59,8.27-6.11,11.1-10.57l0,0c2.59-4.08,4.44-8.96,5.56-14.6c0.12,0.12,0.23,0.22,0.34,0.33c0.37,0.44,0.67,0.91,0.88,1.48  c1.24,3.12,0.3,8.4-2.82,15.82l-0.52,1.22l1.3-0.01h0.02l0.01,0.01c1.24-0.04,2.42-0.17,3.54-0.42c1.12-0.25,2.17-0.59,3.15-1.06  c4.98-2.35,8-7.43,9.06-15.2c0.28-0.57,0.56-1.07,0.84-1.55h0.01c3.41-5.6,5.94-10.96,8.17-16.58c0.38,1.15,0.86,2.32,1.43,3.51  l0.07-0.03c1.03,2.71,2.25,5.37,3.66,7.95c1.54,2.85,3.31,5.62,5.3,8.3c8.71,11.75,21.72,22.21,39.05,31.32  c-29.88,7.13-53.24,17.49-68.21,27.56c-3.01,2.04-5.68,4.04-7.99,6c-1.4,1.19-2.67,2.37-3.82,3.53c-0.05-1.36-0.48-2.8-1.28-4.31  c-0.27-0.5-0.59-1-0.94-1.54c-0.36-0.52-0.76-1.04-1.19-1.57l0,0c-0.9-0.39-1.39-0.46-1.77-1.48c-0.41-1.09-0.67-2.79-0.79-5.08  c-0.06-1.37-0.08-2.94-0.05-4.72l0.03-1.7l-1.42,1c-5.53,3.88-9.3,8.17-11.35,12.89c-1.92,4.43-2.29,9.21-1.13,14.34  c-4.77,0.13-8.72-1.78-11.83-5.76c-0.67-0.84-1.29-1.78-1.88-2.81c-0.6-1.06-1.16-2.19-1.67-3.41l-0.03-0.06l-0.9-2.12l-0.78,2.27  c-3.15,9.07-3.52,16.11-1.08,21.12c2.29,4.71,6.99,7.58,14.1,8.58c-6.14,7.46-6.33,16.83-0.57,28.11l1.31,2.56l0.39-2.93  c0.38-2.83,2.37-5.04,5.97-6.62c0.75-0.33,1.54-0.64,2.42-0.92c0.57-0.18,1.16-0.35,1.78-0.51c-0.3,5.36,0.87,10.38,3.54,15.1  c2.83,5.02,7.34,9.66,13.52,13.93l0.04,0.04l0.03,0.02c7.46,4.08,12.48,8.52,15.03,13.31c2.51,4.7,2.64,9.8,0.41,15.27l-0.02,0.03  c-3.53,9.84-7.19,17.63-10.96,23.42c-3.71,5.67-7.51,9.36-11.4,11.07l0,0h-0.01c-0.39,0.16-0.78,0.28-1.19,0.34  c-0.42,0.04-0.86,0.04-1.31-0.01c-2.46-0.33-5.34-2.34-8.65-5.99c-0.39-6.24-1.87-10.42-4.44-12.54c-2.67-2.19-6.37-2.16-11.12,0.07  c-0.52-0.03-1.05-0.06-1.58-0.06c-4.07-0.03-7.29,0.93-9.62,2.92c-2.35,1.97-3.79,4.93-4.3,8.85c-0.06,0.51-0.11,1.05-0.14,1.61  l-0.1,1.6l1.41-0.81c2.48-1.43,4.36-2.08,5.62-1.96c0.86,0.08,1.42,0.64,1.68,1.65c-2.11,1.68-3.17,3.34-3.18,4.95  c-0.01,1.6,0.99,3.05,3.01,4.34c-0.27,0.76-0.46,1.56-0.57,2.45c-4.28,0.99-7.34,2.63-9.18,4.92c-1.98,2.48-2.53,5.65-1.61,9.51  l0.29,1.25l1.09-0.78c1.55-1.13,2.95-2,4.18-2.62c1.55-0.78,2.86-1.14,3.88-1.1c0.9,0.04,1.6,0.42,2.11,1.15  c0.07,0.1,0.15,0.2,0.2,0.32c-1.3,3.21-1,5.2,0.89,5.97c-1.06,2.15-1.76,3.86-2.08,5.12c-0.21,0.83-0.27,1.51-0.17,2.05  c0.09,0.48,0.3,0.85,0.62,1.1c-0.26,0.46-0.5,0.93-0.71,1.38c-0.35,0.74-0.67,1.48-0.93,2.21c-1.35,3.79-1.31,7.14,0.15,10.04  l0.66,1.34l0.89-1.29c1.48-2.15,2.92-3.83,4.33-5.01c0.76,0.97,1.55,1.86,2.35,2.64c1,0.97,2.02,1.8,3.1,2.47  c5.55,3.47,11.92,2.89,19.13-1.76l0.13-0.09l0.1-0.13h0.01h0.01c0.26-0.32,0.49-0.64,0.71-0.95c0.22-0.29,0.44-0.62,0.65-0.99  c0.92-1.54,1.62-3.28,2.06-5.2c7.13-0.89,12.6-3.02,16.41-6.42c1.3-1.16,2.4-2.47,3.3-3.9c0.96,2.85,2.23,4.86,3.8,6.03l0,0  c1.71,1.28,3.72,1.57,6.05,0.86c0.19-0.06,0.37-0.13,0.55-0.19h0.01h0.01v-0.02c2.38-0.63,3.84-0.29,4.39,1.01  c0.65,1.55,0.31,4.35-1.04,8.41l-0.49,1.46l1.5-0.34c3.87-0.9,6.81-2.98,8.82-6.24c1.93-3.14,2.97-7.33,3.12-12.61  c3.35-5.49,4.4-10.42,3.13-14.8c-1.16-4.05-4.28-7.58-9.35-10.57c5.45-2.9,9.73-7.26,12.85-13.08c0.67-1.24,1.28-2.54,1.83-3.91  c0.25-0.61,0.49-1.26,0.73-1.91c1.02,1.7,2.67,3.13,4.95,4.32l0.08,0.04l0.08,0.01c2.72,0.78,5.06,2.38,7.02,4.76  c0.38,0.46,0.75,0.97,1.12,1.51c0.37,0.55,0.71,1.12,1.03,1.7l0,0l0.01,0.03l0.51,0.9l0.84-0.7c6.04-5.05,7.59-11.72,4.67-20.01  c-0.56-1.57-1.28-3.21-2.17-4.91c-0.76-1.46-1.65-2.97-2.65-4.51c1.96-1.06,3.92-1.16,5.9-0.31c2.37,1.04,4.8,3.46,7.26,7.21  l0.92,1.41l0.68-1.62c2.19-5.3,2.53-10.57,1.04-15.79c-1.34-4.7-4.18-9.36-8.49-13.96c0.22-0.06,0.44-0.13,0.64-0.21  c1.95-0.7,3.69-2.36,5.23-5.01c0.73-0.81,1.7-1.28,2.89-1.41c1.33-0.14,2.94,0.12,4.83,0.78l1.12,0.41l0.12-1.22  c0.03-0.32,0.06-0.64,0.07-0.97c0.17-3.94-0.95-6.95-3.37-9.04c-2.36-2.06-5.95-3.18-10.74-3.37c-0.63-0.03-1.28-0.03-1.97-0.03  h-0.08h-0.03c-5.11,0.62-8.9,0.37-11.38-0.77l0,0c-0.45-0.2-0.86-0.45-1.23-0.73c-0.35-0.26-0.67-0.56-0.93-0.88h-0.01l-0.01-0.01  l0,0c-3.56-4.5-5.68-9.26-6.36-14.3c-0.13-0.97-0.2-1.96-0.22-2.97c-0.02-0.95,0.01-1.89,0.08-2.82  c9.7-9.59,20.71-15.63,33.04-18.16c3.08-0.63,6.25-1.03,9.5-1.23c2.96-0.16,6-0.16,9.11,0.04c-0.85,4.13-1.97,8.48-3.38,13.05  l-0.02,0.09c-1.92,9.93-2.71,18.36-2.38,25.3c0.34,6.89,1.8,12.34,4.38,16.33c0.06,3.69-1.05,6.59-3.35,8.72  c-2.42,2.24-6.15,3.69-11.2,4.36l-0.99,0.13l0.17,0.96c0.44,2.53,1.1,4.67,1.96,6.42l0,0c1.23,2.49,2.89,4.22,4.96,5.15  c2.08,0.94,4.54,1.07,7.38,0.43c1.8-0.42,3.76-1.15,5.88-2.2c1.1,5.12,1.25,9.75,0.44,13.89c-0.85,4.38-2.78,8.23-5.79,11.55  l-1.18,1.31l1.71,0.17c0.78,0.07,1.55,0.12,2.29,0.15c6.13,0.21,11-1.33,14.6-4.62c3.49-3.16,5.76-7.93,6.81-14.28  c0.22,0.49,0.44,0.96,0.68,1.41c0.74,1.41,1.54,2.66,2.43,3.74c4.62,5.74,11.11,7.18,19.48,4.36l1.7-0.57l-1.39-1.01  c-2.66-1.98-4.51-3.99-5.51-6.08c-0.97-2.02-1.17-4.12-0.59-6.29l0.01-0.04c0.42-1.96,0.6-3.67,0.56-5.18  c0.64,0.49,1.3,0.96,1.97,1.39c1.28,0.83,2.58,1.54,3.9,2.15c6.84,3.11,14.34,3.22,22.53,0.35l0.06-0.03l0.07-0.03  c0.87-0.47,1.64-0.75,2.31-0.84c0.64-0.09,1.19,0,1.64,0.26c0.48,0.27,0.89,0.74,1.22,1.42c0.49,1,0.83,2.39,0.98,4.21  c-1.74,11.31-4.06,20.47-6.94,27.5c-2.84,6.94-6.23,11.74-10.16,14.44l0,0c-1.45,0.97-3.28,1.18-5.5,0.59  c-2.32-0.59-5.05-2.03-8.16-4.28c-1.78-6.63-4.31-10.8-7.58-12.51c-3.38-1.76-7.42-0.93-12.12,2.5c-0.6,0.07-1.19,0.18-1.77,0.29  h-0.01c-4.47,0.84-7.76,2.57-9.89,5.18c-2.13,2.64-3.05,6.11-2.76,10.4c0.04,0.57,0.1,1.17,0.18,1.76l0.22,1.58l1.25-1.07  c2.43-2.09,4.36-3.21,5.79-3.35c1.04-0.1,1.81,0.39,2.34,1.51c-1.04,1.22-1.76,2.35-2.15,3.39c-0.36,0.96-0.44,1.86-0.26,2.69  c0.19,0.84,0.64,1.58,1.36,2.23c0.71,0.64,1.67,1.19,2.9,1.66c-0.15,0.88-0.17,1.86-0.1,2.89c-4.52,1.97-7.53,4.39-9.04,7.27  c-1.62,3.06-1.52,6.56,0.31,10.48l0.54,1.16l0.93-0.99c2.85-3.03,5.27-4.87,7.23-5.54c1.59-0.54,2.87-0.23,3.87,0.92  c-0.38,1.93-0.33,3.41,0.12,4.44l0,0c0.42,0.96,1.15,1.54,2.17,1.73c-0.72,2.58-1.12,4.62-1.21,6.05c-0.06,1.15,0.08,2.01,0.43,2.56  c0.2,0.32,0.46,0.55,0.76,0.68c-0.19,0.58-0.35,1.15-0.49,1.7c-0.23,0.88-0.41,1.74-0.54,2.58c-0.67,4.34,0.11,7.92,2.33,10.71  l0.92,1.16l0.62-1.43l0.02-0.04c0.46-1.04,0.94-2.02,1.44-2.93c0.48-0.87,0.98-1.68,1.49-2.4c0.27-0.39,0.54-0.74,0.82-1.07  c1.09,0.93,2.2,1.75,3.3,2.44c1.32,0.82,2.62,1.48,3.93,1.96c6.79,2.47,13.62,0.45,20.48-6.07l0.1-0.1l0.07-0.13l0.04-0.06  l0.01-0.01c0.2-0.38,0.39-0.75,0.57-1.14c0.18-0.41,0.34-0.8,0.48-1.21c0.67-1.86,1.05-3.88,1.12-6.04  c1.98-0.65,3.82-1.36,5.51-2.13c1.89-0.86,3.61-1.82,5.14-2.83c4.35-2.9,7.3-6.43,8.85-10.58c1.69,2.93,3.55,4.88,5.55,5.81  c2.13,0.98,4.38,0.86,6.75-0.39l0,0c0.16-0.08,0.35-0.2,0.55-0.32l0.02-0.01c2.55-1.23,4.28-1.19,5.2,0.13  c1.07,1.54,1.31,4.66,0.7,9.36l-0.19,1.51l1.42-0.63c5.81-2.6,8.97-7.35,9.49-14.25c0.1-1.32,0.1-2.71,0.01-4.17  c-0.09-1.38-0.27-2.84-0.53-4.38c2.49-6.62,2.56-12.13,0.22-16.57c-2.25-4.27-6.72-7.46-13.4-9.56c3.99-9.2,6.9-17.23,8.73-24.07  c1.5-5.63,2.27-10.48,2.31-14.54c6.03,7.2,14.42,7.74,25.2,1.65l2.78-1.57l-3.11-0.11c-3.94-0.13-6.63-1.09-8.07-2.87  c-1.42-1.75-1.66-4.38-0.74-7.88l0.03-0.1v-0.12c0.12-4.59-0.46-8.27-1.7-11.05c4.69-0.07,8.98-1.04,12.89-2.93  c4.34-2.09,8.19-5.3,11.55-9.62l0.93-1.82l-1.63,0.4c-2.98,0.18-5.35-0.25-7.1-1.25c-1.7-0.99-2.83-2.55-3.41-4.7l-0.02-0.05  c-1.33-3.79-3.95-6.08-7.84-6.87c-3.33-0.68-7.59-0.22-12.79,1.39c0.22-0.46,0.46-0.9,0.69-1.33c0.54-0.99,1.12-1.93,1.74-2.85  c3.16-4.63,7.34-8.08,12.52-10.39l1.44-0.64l-1.21-0.91h-0.01l-0.01-0.02c-1.54-1.13-3.14-2.03-4.77-2.71  c-1.64-0.67-3.32-1.1-5.02-1.31c-8.6-1.02-17.98,4.01-28.14,15.04c-10.64,0.1-18.4-1.32-23.27-4.28c-4.75-2.89-6.7-7.3-5.87-13.24  c2.26-10.17,2.75-18.9,1.48-26.14c-0.3-1.71-0.7-3.35-1.2-4.89c13.69,10.57,38.11,17.45,60.26,6.85  c42.82-26.27,26.75-90.75,9.33-121.34c-2.46-3.95-4.64-8-6.59-12.22c-7.19-16.31-20.4-73.04,15.52-65.53  c15,4.32,9.93,21.44,5.05,32.58c22.36-8.96,25.78-46.59,5.28-57.03c-5.34-2.36-10.56-2.79-16.45-3.21  c6.63-13.44,13.46-29.13,3.67-41.95c-11.61-13.34-40.27-17.56-50.5,1.57c7.02-1.86,14.42,1.47,20.37,4.43  c11.87,10.7,7.17,22.1-0.57,34.66l-2.21-5.74c-3.67-7.15-12.22-7.01-19.52-6.29c-12.11,2.21-12.41,17.37-12.15,26.77  c4.74-6.18,12.46-7.4,19.5-7c15.29-2.65,11.2,18.62,8.25,27.14c-7.91,25.08-3.22,47.75,9.92,68.93  c11.29,21.71,24.9,48.71,21.19,74.69c-1.3,6.38-3.49,11.55-7.72,16.69c-16.97,17.78-41.36,16.88-60.62-1.42  c-2.71-5.28-6.52-10.67-11.44-16.14c-1.09-1.22-2.24-2.44-3.45-3.67c-1.19-1.22-2.44-2.44-3.76-3.69l0,0h-0.02l-0.04-0.04  l-0.04-0.03c-19.61-14.82-32.19-27.92-37.72-39.33c-1.06-2.19-1.87-4.33-2.41-6.39c-0.17-0.67-0.31-1.32-0.43-1.97  c2.46,3.42,5.63,5.67,9.52,6.76l1.27,0.36l-0.08-1.32c-0.31-5.06,0.64-10.04,2.85-14.95h0.01c0.43-0.96,0.91-1.92,1.45-2.88  c0.53-0.96,1.1-1.92,1.73-2.86c3.62-4.48,6.16-9.08,7.6-13.77c1.12-3.63,1.58-7.3,1.39-11.05c0.39,0.49,0.8,0.99,1.21,1.48  c0.99,1.16,2.06,2.32,3.2,3.47c1.15,1.16,2.37,2.31,3.67,3.44h0.01l0.02,0.02l2.34,2.04l-0.87-3.02c-0.67-2.38,0.09-7.24,2.3-14.56  c0.44-1.45,0.94-2.99,1.48-4.63c0.56-1.67,1.17-3.4,1.82-5.2v-0.01l0.02-0.04l0.02-0.06l0.01-0.02c2.06-7.81,2.16-16.16,0.32-25.02  c-0.11-0.57-0.24-1.13-0.37-1.68c0.81,1.03,1.66,1.9,2.54,2.6c2.78,2.16,5.91,2.7,9.4,1.6l1.33-0.42l-0.86-1.03  c-1.07-1.29-1.46-4.25-1.16-8.9c0.06-0.91,0.15-1.91,0.27-3.01c0.12-1.09,0.27-2.22,0.44-3.4l0.01-0.04  c1.77-8.17,1.47-15.18-0.88-21.03c-0.46-1.15-1-2.25-1.62-3.29v-0.02c-0.62-1.04-1.31-2.06-2.09-3.02v-0.01l-0.01-0.02l-0.08-0.1  l-0.12-0.07c-3.12-1.99-5.65-4.51-7.58-7.55c-0.19-0.3-0.38-0.61-0.56-0.93c2.21,1.18,4.43,1.86,6.66,2.06h0.01  c3.21,0.31,6.43-0.38,9.65-2.03l1.5-0.77l-1.39-0.81c-5.14-3-8.79-7.01-10.93-12c-0.42-0.97-0.78-1.99-1.09-3.05  c-0.31-1.04-0.55-2.12-0.73-3.22c-0.05-6.78-1.79-11.65-5.22-14.63c-0.68-0.58-1.43-1.1-2.23-1.54h-0.01  c-0.31-0.16-0.63-0.32-0.95-0.46c1.6-1.13,3.15-2.57,4.66-4.34c1.08-1.26,2.13-2.68,3.16-4.28c1.02-1.58,2.03-3.34,2.99-5.25l0,0  h0.01l0.75-1.47l-1.61,0.19c-2.71,0.32-5.71-0.03-8.99-1.05c-0.62-0.19-1.28-0.42-1.98-0.68c-0.69-0.25-1.37-0.54-2.04-0.83l0,0  l-0.05-0.02l-0.05-0.03l-0.04-0.01c-0.71-0.22-1.42-0.42-2.11-0.59c-3.13-0.6-9.55-2.01-15.8,1.01c-1.87-5.07-13.14-7.42-20.93-8.13  c-17.14-1.57-35.53,5.44-37.35,13.48c-1.2,0.31-2.37,0.64-3.48,0.99c-1.18,0.36-2.29,0.75-3.32,1.15  c-5.34,2.05-9.13,4.57-11.35,7.58c-1.35,0.81-2.71,1.44-4.04,1.86c-1.38,0.45-2.74,0.68-4.08,0.71L174.56,26l-0.24,0.16l-0.03,0.03  h-0.01c-0.37,0.26-0.72,0.53-1.03,0.8l0,0c-0.33,0.26-0.62,0.54-0.88,0.8c-1.44,1.44-2.08,2.84-1.91,4.24  c-0.07,0.65-0.09,1.26-0.07,1.8c0.05,1.31,0.36,2.31,0.91,3.03c0.53,0.68,1.26,1.09,2.19,1.22c-1.21,5.08-1.16,8.79,0.13,11.14  c2.73,4.98,20.27,3.38,27.88-1.6c6.36,0,12.43,7.3,4.39,5.49c-8.63-2.45-23.54,4.57-23.38,4.57c-10.97,3.88-19.55,5.83-25.74,5.9  c-6.81,0.04-10.63-2.27-11.45-6.91l-0.01-0.07l-0.01-0.04c-0.21-0.79-0.37-1.57-0.47-2.31c-0.12-0.77-0.19-1.51-0.22-2.23  c-0.14-3.73,0.84-7.2,2.92-10.39l0.11-0.22c0.77-2.28,0.8-4.02,0.1-5.21c-0.74-1.25-2.2-1.8-4.36-1.67h-0.02h-0.05h-0.01  c-1.1,0.12-2.15,0.35-3.14,0.71c-1,0.36-1.92,0.85-2.8,1.48c-4.33,3.09-7.05,9.33-8.14,18.74l-0.01,0.08  c-0.06,1.48-0.03,2.88,0.08,4.19c0.42,5.37,2.18,9.38,5.25,12.04c3.06,2.66,7.41,3.93,13.04,3.83c1.52-0.03,3.12-0.16,4.82-0.38  l0.06-0.01h0.03l0.02-0.01c2.23-0.49,4.41-1.02,6.55-1.54c2.16-0.54,4.25-1.06,6.26-1.6c8.55-2.25,16.23-4.6,23.05-7.08  c4.97-1.1,10.93-4.21,16.91-1.52c8.53,3.82-3.39-0.16-9.1,3.03C191.41,69.22,184.44,71.98,182.39,76.99L182.39,76.99z" />
<path
   id="Fell_1_"
   fill="#FFCC00"
   d="M23.49,118.31c-0.83-0.22-1.65-0.47-2.47-0.77c-1.26-0.67-2.25-1.37-2.98-2.08  c-0.84-0.81-1.32-1.66-1.44-2.53c-0.12-0.84,0.09-1.76,0.64-2.73c0.4-0.71,0.98-1.44,1.72-2.21c2.12-1.53,3.64-3.03,4.6-4.54  c0.8-1.26,1.19-2.53,1.18-3.77c-0.01-1.26-0.42-2.48-1.24-3.66c-0.91-1.31-2.31-2.58-4.23-3.82c1.71-2.18,4.13-3.37,7.23-3.55  c3.58-0.21,8.1,0.9,13.53,3.31c2.03,1.78,13.36,10.93,21.09,10.35c-1.07-0.41-2.13-0.84-3.19-1.31c-1.06-0.46-2.09-0.94-3.06-1.42  c-5.13-2.53-9.7-5.56-13.7-9.09l-0.09-0.09l-0.12-0.04c-5.44-2.42-10.05-3.6-13.84-3.53c-0.3-0.76-0.54-1.48-0.72-2.16  c-0.58-2.23-0.53-4.11,0.14-5.63c0.67-1.5,1.97-2.7,3.91-3.6c0.34-0.16,0.71-0.32,1.09-0.45c0.03,0.36,0,0.73-0.09,1.12  c-0.12,0.52-0.34,1.07-0.66,1.67l-0.17,0.83l0.96,0.47c0.39-0.01,0.76-0.04,1.1-0.09c3.38-0.39,5.94-1.75,7.66-4.1  c1.68-2.28,2.53-5.46,2.54-9.52c0-0.45-0.01-0.9-0.03-1.35c4.32-1,7.77,0.07,10.35,3.25c0.54,0.67,1.04,1.44,1.52,2.31  c0.44,0.8,0.84,1.67,1.22,2.61c-1.79,4.49-2.22,8.54-1.32,12.15c0.63,2.5,2.42,7.69,8.14,8.16c-3.42-2.47-5.56-5.37-6.39-8.68  c-0.79-3.15-0.42-6.72,1.1-10.71c3.38,0.23,6-0.13,7.84-1.1c1.81-0.96,2.89-2.42,3.24-4.43l4.49,1.12c3.45,1.78,4.78,4.47,3.98,8.06  c-0.88,3.89-4.12,8.85-9.75,14.88l-0.08,0.09l-0.07,0.12c-1.58,2.92-1.66,5.49-0.22,7.67c1.35,2.08,4.08,3.74,8.17,5l0.06,0.02  l0.04,0.01c9.3,1.77,18.06,4.75,26.25,8.91c1.57,0.8,3.14,1.66,4.73,2.57c1.57,0.92,3.11,1.86,4.61,2.85c2,1.42,4.12,2.73,6.36,3.93  c-1.43,2.12-2.66,4.28-3.93,6.68c6.62-0.77,15.28-1.01,20.55-0.04c1.19,0.41,2.4,0.81,3.64,1.16c0.67,0.41,1.07,0.89,1.11,1.45  c-4.16,5.09-3.18,12.94-14.13,18.59c-5.99,3.11-14.58,3.38-22.75,2.94c11.31,19.74,31.2,14.54,39.42,6.34h0.03l0.01-0.01h0.01h0.01  h0.01h0.07c0.04,0.01,0.08,0.04,0.1,0.09h0.01c0.01,0.03,0.02,0.06,0.02,0.07v0.01c0,0.02-0.01,0.03-0.01,0.06  c-1.01,1.6-2.03,3.74-2.66,5.54l-0.03,0.01c-0.21,0.71-0.56,1.48-1.03,2.26c-0.82,0.39-1.67,0.78-2.56,1.19  c-10.93,1.2-15.06,4.66-24.68,4.12c-0.53-0.03-1.1-0.03-1.74,0c-0.6,0.04-1.26,0.1-1.93,0.21h-0.01l-0.1,0.01  c-5.92,0.9-9.65,5.43-15.96,1.38c-0.75-0.49-1.46-1.09-2.12-1.79c-0.41-0.44-0.8-0.91-1.16-1.44c7.52-1.73,12.39-4.15,14.61-7.24  c0.5-0.68,0.87-1.39,1.1-2.15c0.23-0.74,0.34-1.52,0.32-2.32v-0.02l-0.01-0.09l-0.04-1.29l-1.21,0.55  c-5.6,2.62-10.85,4.01-15.73,4.2c-4.2,0.16-8.12-0.59-11.79-2.23c4-1.89,6.55-4.27,7.65-7.13c0.26-0.65,0.43-1.34,0.53-2.03  c0.09-0.71,0.12-1.42,0.06-2.16l-0.01-0.09l-0.01-0.03c-0.17-1.36-0.4-2.56-0.71-3.61c-0.61-2.09-1.51-3.6-2.7-4.53  c-1.25-0.97-2.77-1.31-4.57-0.99l-0.08,0.01c0.32-2.51-0.14-4.73-2.77-5.69c1.51,3.46,1.37,6.53-0.45,9.23  c-0.37,0.55-0.79,1.08-1.27,1.58h-0.01c-0.49,0.49-1.03,0.99-1.64,1.47c-0.82,0.45-1.59,0.77-2.29,0.99  c-1.38,0.42-2.56,0.43-3.53,0.03c-0.97-0.41-1.78-1.26-2.42-2.54c-0.34-0.68-0.63-1.47-0.87-2.37c0.39-2.1,0.36-3.83-0.09-5.17  c-0.32-0.95-0.83-1.7-1.55-2.25c-0.71-0.55-1.59-0.9-2.66-1.06c-2.17-0.3-5.15,0.22-8.93,1.58c-0.45-1.19-0.77-2.28-0.94-3.28  c-0.29-1.71-0.16-3.15,0.39-4.31c0.55-1.12,1.51-2,2.91-2.65c0.7-0.34,1.51-0.6,2.43-0.82c0.28,0,0.54-0.01,0.8-0.06  c1.02-0.16,1.82-0.6,2.39-1.32c0.54-0.68,0.85-1.58,0.92-2.71c0.03-0.45,0.02-0.96-0.04-1.52l-0.04-0.2  c-0.87-2.48-4.11-3.64-9.72-3.49c-1.03,0.03-2.15,0.1-3.35,0.22c-1.2,0.13-2.49,0.29-3.84,0.49l-0.12,0.02l-0.15,0.01l-0.13,0.08  c-3.77,1.93-7.72,2.6-11.83,2.03C25.13,118.67,24.31,118.51,23.49,118.31z M132.27,127.16c1.63,0.33,3.17,0.8,4.62,1.37  c1.25,0.51,2.46,1.1,3.6,1.8c1.65-1.86,8.22-8.82,15.89-6.56c-6,0.45-11.22,3.46-15.65,9c-0.87,1.09-1.71,2.29-2.53,3.6  c-0.82,1.31-1.62,2.72-2.36,4.2l-0.03,0.04c-2.34,5.66-6.36,9.72-12.06,12.15c-5.16,2.19-11.7,3.05-19.59,2.55l0.29,0.36  c5.24,6.34,11.06,9.64,17.48,9.88c6.32,0.23,13.29-2.48,20.88-8.14c1.02-0.97,2.19-1.89,3.51-2.77c-1.32,3.63-4.67,6.24-5.87,9  c-1.2,2.77-1.36,5.86-0.5,9.28c2.21,7.11,2.19,14.52-0.04,22.19c-0.44,1.5-0.95,3-1.55,4.51c-0.43,1.07-0.9,2.14-1.42,3.25  c7.17-0.84,13.59-4.53,19.23-11.07c1.19-1.38,2.35-2.89,3.47-4.52c1.12-1.64,2.21-3.4,3.27-5.28l0.05-0.09l2.79-5.05l-1.13,5.59  c-1.94,9.59-1.63,17.53,0.95,23.82l0.04-0.01l0.25,0.68c0.78,1.74,1.73,3.35,2.87,4.82c4.88,6.34,13.14,10.29,24.76,11.84  c-5.24-4.7-7.58-9.97-6.98-15.78c0.13-1.29,0.41-2.6,0.83-3.95c0.42-1.32,0.99-2.67,1.68-4.05l0.01-0.01l0.01-0.01l0.06-0.1  l0.09-0.1c3.31-3.56,6.17-8.13,8.61-13.7c0.48-1.1,0.94-2.23,1.37-3.38c0.44-1.19,0.88-2.39,1.28-3.63l0.01-0.02l1.61-4.9l0.14,5.06  c0.5,17.16,5.19,28.77,14.07,34.83c1.71,1.18,3.59,2.15,5.62,2.92c1.55,0.58,3.2,1.04,4.93,1.39c-1.45-3.73-1.61-7.75-0.49-12.06  c0.25-0.96,0.56-1.93,0.93-2.89c0.38-0.99,0.81-1.98,1.31-2.98v0.01l0.04-0.1l0.07-0.08c4.2-5.34,7.21-11.13,9.05-17.33  c0.35-1.21,0.67-2.44,0.93-3.67c0.26-1.22,0.48-2.48,0.66-3.77l0.01-0.06l1.05-7.61l0.74,7.55c1.29,13.09,5.63,21,12.99,23.73  c-0.09-4.88,0.93-9.68,3.08-14.44h-0.01c0.46-1,0.96-2,1.52-3.02c0.55-0.98,1.16-1.99,1.81-2.99v0.02l0.02-0.04l0.04-0.06l0.02-0.01  c3.49-4.31,5.93-8.69,7.3-13.16c1.36-4.41,1.69-8.9,1-13.48c-1.51-2.25-6.5-10.05-3.81-14.3c0.8,5.89,3.64,11.7,8.54,17.45  c0.95,1.12,1.99,2.23,3.11,3.37c0.59,0.6,1.21,1.2,1.85,1.77c0.01-2.95,0.88-7.27,2.6-12.97c0.45-1.47,0.95-3.04,1.5-4.69  c0.55-1.63,1.16-3.37,1.84-5.24c1.98-7.52,2.07-15.57,0.28-24.17c-0.53-2.54-2.17-6.98-1.28-11.06v0.02l0.01,0.03  c1.84,4.81,3.96,8.16,6.36,10.03c1.98,1.55,4.19,2.09,6.61,1.63c-0.83-1.85-1.12-4.83-0.85-8.94c0.06-0.99,0.15-2.02,0.27-3.09  c0.12-1.06,0.27-2.22,0.45-3.46v-0.01l0.02-0.07l0.01-0.06c1.7-7.82,1.44-14.5-0.78-20.02c-0.43-1.08-0.93-2.11-1.51-3.09  c-0.56-0.94-1.19-1.87-1.88-2.74c-3.28-2.11-5.94-4.77-7.97-7.98c-0.41-0.64-0.78-1.29-1.13-1.95c-0.34-0.67-0.67-1.36-0.98-2.09  l-0.01-0.01l-1.22-2.99l2.6,1.87c2.88,2.06,5.76,3.22,8.64,3.5c2.35,0.22,4.72-0.16,7.11-1.13c-4.72-3.08-8.12-7.05-10.21-11.92  c-0.45-1.06-0.83-2.14-1.15-3.24c-0.32-1.1-0.59-2.26-0.79-3.48v-0.01l-0.02-0.08V42.5c-0.04-6.29-1.58-10.75-4.64-13.41  c-0.6-0.5-1.24-0.96-1.94-1.34c-0.61-0.33-1.27-0.61-1.97-0.84c-3.77,2.02-7.77,2.37-12.03,1.06c-0.3,0.25-0.57,0.51-0.82,0.77  c-1.3,1.34-1.93,2.8-1.89,4.36c0.04,1.64,0.81,3.44,2.29,5.38c0.74,0.97,1.64,1.97,2.71,3c3.86,2.96,5.99,6.92,6.39,11.87  c0.39,4.89-0.91,10.74-3.9,17.55L269.95,74l-0.36-3.27c-0.54-4.99-2.49-8.63-5.83-10.91c-0.64-0.45-1.36-0.84-2.11-1.19  c-0.26-0.13-0.54-0.23-0.81-0.35c3.3,11.64,2.61,20.61-2.05,26.93c-0.96,1.31-2.09,2.49-3.39,3.56c-1.3,1.08-2.75,2.02-4.37,2.85  L251,91.62l-2.2,1.13l1-2.25c0.92-2.09,1.51-3.89,1.76-5.39c0.24-1.36,0.19-2.45-0.13-3.26c-0.3-0.75-0.85-1.28-1.64-1.6  c-0.19-0.07-0.39-0.13-0.62-0.19c-0.56,1.41-1.34,2.69-2.35,3.82c-0.64,0.72-1.39,1.4-2.23,2c-0.83,0.61-1.75,1.16-2.75,1.64  c-3.77,2.05-6.2,4.86-7.27,8.44c-0.21,0.69-0.37,1.44-0.48,2.2c-0.11,0.79-0.17,1.58-0.17,2.41l-0.01,0.08v1.51l-1.33-0.64  c-4.19-2.06-5.73-6.2-4.65-12.41c0.21-1.16,0.51-2.39,0.9-3.71c0.22-0.71,0.45-1.44,0.72-2.19c-0.8,0.24-1.66,0.39-2.58,0.42  c-1.84,0.07-3.93-0.3-6.26-1.1c-5.59-1.16-12.56,1.02-20.89,6.55c-1.65,1.09-3.35,2.32-5.11,3.67c-1.77,1.38-3.58,2.88-5.43,4.47  l-0.04,0.03l-0.06,0.06l-0.08,0.05c-8.38,5.03-15.58,5.63-21.6,1.78c-1.16-0.76-2.28-1.66-3.34-2.75c-0.68-0.68-1.35-1.44-1.99-2.25  c-1.32,4.71-1.4,8.83-0.25,12.4c1.28,3.96,4.1,7.25,8.46,9.88c1.56,0.45,3.02,0.8,4.4,1.06c7.27,1.34,11.8,0.26,15.31-6.38  c0.59,2.81-0.13,4.69-1.06,6.75c-0.67,1.3-1.45,2.57-2.37,3.77c-4.31,5.7-11.39,10.17-21.2,13.41c1.5,0.81,3.03,1.51,4.56,2.08  c2.14,0.77,4.32,1.32,6.55,1.64c11.52,1.61,24.36-3.06,38.51-13.99c-2.26,5.17-4.89,7.34-6.68,9.45  c-5.04,5.9-8.41,11.54-10.11,16.94c0.58-0.38,1.14-0.74,1.71-1.09c1.22-0.74,2.42-1.39,3.58-1.97c6.1-2.96,11.68-3.66,16.78-2.09  c5.25,0.78,9.52-0.06,12.82-2.55c3.33-2.51,5.73-6.75,7.18-12.67c2,5.43-3.77,12.29-6.15,14.09c-3.74,2.81-8.49,3.79-14.28,2.92  l-0.06-0.02l-0.07-0.01c-4.65-1.46-9.82-0.81-15.51,1.96c-1.13,0.55-2.27,1.17-3.43,1.87c-1.15,0.71-2.34,1.51-3.55,2.39h-0.02  l-1.9,1.38l0.52-2.25c1.46-6.37,5.17-13.05,11.14-20.03c0.4-0.47,0.8-0.93,1.21-1.39c-11.52,7.27-22.21,10.22-32.04,8.84  c-2.35-0.32-4.66-0.9-6.91-1.73c-2.25-0.83-4.45-1.88-6.59-3.19v-0.01l-0.02-0.02l-1.68-1.03l1.97-0.6  c10.47-3.13,17.88-7.6,22.25-13.37c0.62-0.83,1.19-1.68,1.68-2.57c-2.95,1.83-7.14,2.25-12.57,1.25c-1.56-0.29-3.22-0.7-4.99-1.22  c-1.76-0.52-3.63-1.15-5.6-1.9l-0.1-0.04l-0.06-0.03l-0.04-0.02c-3.05-1.63-6.4-2.92-10.04-3.86c-3.66-0.96-7.62-1.58-11.89-1.86  c-7.58-0.43-14.16,2.58-19.75,9.09c-1.11,1.29-2.18,2.71-3.2,4.25c-0.74,1.12-1.46,2.32-2.17,3.58  C122.44,126.25,127.69,126.22,132.27,127.16z M99.3,247.56c0.91,0.23,1.74,0.38,2.51,0.42c1.46,0.07,2.66-0.2,3.55-0.83  c0.91-0.61,1.58-1.61,2.02-2.99c0.23-0.7,0.39-1.51,0.5-2.41c-0.06-0.76-0.16-1.45-0.31-2.1h0.01c-0.15-0.67-0.34-1.28-0.59-1.85  c-1.25-2.86-3.78-4.48-7.59-4.88c2.34-1.77,4.49-1.07,6.43,0.42l0.04-0.08c0.78-1.68,1.95-2.81,3.49-3.38  c1.48-0.57,3.29-0.59,5.41-0.09c1.06,0.25,2.22,0.64,3.47,1.16l0.03,0.01l0.09,0.03c0.65,0.32,1.26,0.68,1.79,1.1  c0.54,0.42,1.02,0.9,1.43,1.44c1.79,2.32,2.32,5.63,1.61,9.94c3.51-2.31,6.43-5.27,8.73-8.88c2.67-4.22,4.53-9.33,5.56-15.36  l0.22-1.28l1.13,0.58l0.07,0.04c0.7,0.38,1.31,0.86,1.8,1.41c0.5,0.56,0.9,1.22,1.19,1.97c1.33,3.37,0.57,8.68-2.33,15.89  c0.66-0.06,1.29-0.16,1.89-0.29c0.99-0.22,1.9-0.52,2.74-0.93c4.38-2.06,7.04-6.69,7.99-13.88l0.02-0.14l0.06-0.15l0.05-0.08v-0.02  c0.3-0.62,0.63-1.19,0.94-1.72c0.33-0.55,0.67-1.03,1-1.47c4.67-6.09,5.4-10.58,7.96-16.85c-1.33-5.69-0.65-10.8,0.12-15.88  c-4,5.76-6.93,9.74-11.14,12.6c-5.3,4.08-11.63,5.87-16.42,6.37c1.46-4.47,4.7-12.67,4.98-18.05c1.11-5.69-0.62-11.15-1.46-16.68  c-3.1,4.25-8.42,7.78-12.08,10.71c-5.83,4.72-11.8,8.36-17.9,10.93c-1.71,0.8-3.4,1.63-5.08,2.51c-1.7,0.88-3.34,1.8-4.92,2.74  c-8.29,4.9-15.88,10.87-22.78,17.88l-0.03,0.01l-0.04,0.04c-3.45,2.85-6.45,4.34-8.99,4.49c-2.69,0.14-4.82-1.16-6.38-3.93  l-0.06-0.1l-0.03-0.12c-1.86-7.68-4.19-12.85-6.98-15.49c-2.58-2.44-5.64-2.63-9.15-0.57l-3.54,3.25c1.5,1.27,2.12,2.91,1.88,4.89  c-0.24,2.03-1.44,4.43-3.6,7.17c2.5,3.24,5.31,5.28,8.45,6.16c3.29,0.9,6.99,0.51,11.07-1.18c-3.71,4.62-9.16,3.6-11.64,2.9  c-3.59-0.98-6.78-3.32-9.55-7.02c-1.02-0.14-2-0.22-2.93-0.23c-1-0.03-1.95,0.03-2.83,0.16c-4.18,0.64-7.1,3.02-8.75,7.17  c0.4,0.2,0.78,0.42,1.16,0.64c3.45,1.99,5.65,4.25,6.62,6.78c0.99,2.6,0.66,5.43-0.96,8.49c-0.17,0.31-0.35,0.63-0.56,0.97  l-0.96,0.58l-0.6-0.54c-0.32-0.57-0.67-1.02-1.04-1.37c-0.28-0.27-0.58-0.48-0.91-0.64c-0.1,0.39-0.18,0.78-0.25,1.15  c-0.35,2.07-0.09,3.76,0.8,5.05c0.9,1.32,2.47,2.26,4.69,2.86c0.7,0.19,1.45,0.33,2.27,0.45c2.13-3.24,5.8-6.58,11-9.99l0.11-0.07  l0.13-0.04c5.31-1.67,10.53-4.06,15.64-7.17c0.98-0.6,1.97-1.23,2.98-1.9c1-0.67,2-1.37,2.96-2.06c-3.99,6.82-18.32,11.95-21,12.8  c-5.19,3.43-8.74,6.71-10.64,9.84c-1.65,2.71-2.03,5.33-1.17,7.84c2.16-1.02,4.05-1.6,5.68-1.71c1.48-0.13,2.75,0.12,3.82,0.73  c1.07,0.6,1.91,1.54,2.52,2.83c0.73,1.54,1.13,3.57,1.19,6.11c0.21,1,0.51,1.85,0.88,2.53c0.5,0.94,1.15,1.57,1.94,1.87  c0.81,0.32,1.8,0.32,2.98,0.01c1.03-0.27,2.2-0.77,3.49-1.5c0.73-0.55,1.42-1.13,2.08-1.73c0.65-0.59,1.26-1.21,1.83-1.83  c2.86-3.21,4.57-6.88,5.13-11l0.02-0.15l0.07-0.14l0.05-0.11c0.61-1.25,1.22-2.41,1.81-3.48c0.6-1.07,1.19-2.06,1.76-2.95  c3.11-4.83,5.97-7,8.59-6.52l0.19,0.06c0.51,0.21,0.94,0.46,1.32,0.71c0.92,0.6,1.51,1.31,1.77,2.09c0.28,0.84,0.19,1.73-0.28,2.67  c-0.11,0.25-0.24,0.48-0.4,0.7c-0.36,0.88-0.6,1.69-0.73,2.45c-0.25,1.49-0.06,2.76,0.57,3.76c0.65,1.03,1.8,1.84,3.42,2.44  c0.94,0.34,2.06,0.6,3.33,0.79c1.04-3.86,2.31-6.62,3.83-8.31c0.75-0.83,1.56-1.41,2.43-1.73c0.89-0.33,1.83-0.41,2.81-0.22  C96.27,245.4,97.75,246.21,99.3,247.56z M176.72,37.85c-0.45,0.06-0.92,0.12-1.38,0.17c-1.19,4.82-1.23,8.23-0.11,10.25  c0.77,1.43,2.2,2.13,4.29,2.13c-0.99-0.96-1.65-2.26-2-3.92c-0.47-2.28-0.31-5.22,0.5-8.85C177.61,37.72,177.18,37.78,176.72,37.85z   M172.19,33.66c-0.02-0.49,0-1.06,0.06-1.68l0.01-0.11l-0.01-0.1c-0.12-0.81,0.33-1.73,1.35-2.75c0.23-0.22,0.48-0.45,0.76-0.68  c0.23-0.18,0.46-0.36,0.73-0.57c1.44-0.06,2.87-0.32,4.3-0.77c1.53-0.49,3.07-1.22,4.62-2.16l0.18-0.1l0.11-0.16  c1.97-2.76,5.51-5.13,10.59-7.07c1.03-0.39,2.09-0.76,3.2-1.1c1.12-0.35,2.31-0.68,3.57-1.02h0.01l0.37-0.18  c10.77-19.74,56.38-12.37,55.5-5.91c-1.21,1.51-4.36,5.78-4.91,8l0.01-0.02c0.73-1.19,1.52-2.26,2.38-3.24  c0.84-0.94,1.74-1.78,2.68-2.51c4.85-3.69,11.17-4.33,18.94-1.9c0.73,0.32,1.44,0.61,2.13,0.87c0.67,0.25,1.36,0.49,2.07,0.71  c2.9,0.9,5.63,1.31,8.15,1.22c-0.71,1.34-1.44,2.57-2.18,3.72c-0.98,1.52-1.99,2.89-3.01,4.08c-5.13,6.01-10.83,7.97-17.09,5.86  l-0.87,0.16c-0.53,0.41-1,0.84-1.42,1.26c-1.67,1.73-2.48,3.65-2.42,5.72c0.05,2,0.94,4.14,2.63,6.37c0.79,1.04,1.76,2.12,2.9,3.22  l0.07,0.06c3.5,2.66,5.42,6.23,5.79,10.71c0.32,3.89-0.54,8.49-2.56,13.79c-0.99-3.98-2.99-7.01-6.02-9.09  c-0.73-0.49-1.52-0.94-2.37-1.32c-0.84-0.39-1.74-0.73-2.7-0.99l-0.03-0.01l-1.65-0.45l0.51,1.62c3.68,11.9,3.27,20.92-1.25,27.03  c-0.87,1.17-1.89,2.25-3.07,3.22c-0.58,0.48-1.21,0.94-1.88,1.38c0.46-1.28,0.77-2.44,0.96-3.47c0.28-1.7,0.21-3.09-0.23-4.22  c-0.47-1.19-1.33-2.03-2.59-2.53h-0.01c-0.25-0.1-0.52-0.17-0.8-0.25c0.63-2.63,0.65-6.6-2.13-9.4c1.48,5.98,0.79,10.59-2.09,13.82  c-0.56,0.62-1.2,1.2-1.92,1.73c-0.73,0.53-1.55,1.02-2.45,1.45l-0.02,0.02l-0.03,0.01c-4.26,2.31-7,5.5-8.24,9.59  c-0.24,0.8-0.42,1.63-0.55,2.47c-0.05,0.36-0.08,0.72-0.11,1.1c-2.46-1.89-3.28-5.15-2.46-9.8c0.19-1.09,0.47-2.26,0.84-3.5  c0.36-1.18,0.79-2.43,1.31-3.75l0.17-0.12c2.45-1.84,5.62-7.95,2.88-13.16c-0.07,3.31-0.5,6.01-1.31,8.07  c-0.64,1.63-1.5,2.86-2.6,3.67c-1.07,0.81-2.41,1.24-3.98,1.29c-1.63,0.06-3.51-0.28-5.65-1.02c-4.36-2.17-9.29-2.71-14.76-1.61  c-1.07,0.22-2.16,0.49-3.26,0.83c-1.1,0.33-2.23,0.74-3.38,1.2h-0.01l-0.21,0.09l-0.31,0.13l-0.17,0.3  c-0.81,1.47-2.21,2.55-4.15,3.28c-2.06,0.76-4.75,1.09-8.04,1.02c-0.6-0.03-1.13-0.1-1.6-0.23c-0.86-0.25-1.48-0.7-1.85-1.35  c-0.4-0.71-0.55-1.68-0.45-2.92c0.09-1.12,0.39-2.45,0.91-3.99c1.11-2.7,3.06-4.69,5.83-5.97c0.55-0.26,1.14-0.47,1.76-0.68  c0.63-0.2,1.29-0.38,1.98-0.52h0.02l0.21-0.05l0.17-0.13c2.39-1.81,5.37-2.89,8.94-3.22c3.64-0.33,7.89,0.09,12.75,1.28l0.21,0.06  l0.22-0.06c0.9-0.22,1.69-0.51,2.4-0.87c1.68-0.84,2.83-2.06,3.45-3.63c0.6-1.51,0.69-3.33,0.27-5.46c-0.34-1.65-0.98-3.53-1.94-5.6  l-0.04-0.07l-0.04-0.06c-4.3-5.98-8.74-8.74-13.29-8.26c-0.91,0.09-1.81,0.31-2.72,0.65c-0.89,0.35-1.78,0.81-2.67,1.41h-0.01  l-0.01,0.01c-4.61,2.69-9.2,4.09-13.75,4.21c-0.88,0.02-1.77-0.01-2.67-0.08c-0.88-0.08-1.75-0.21-2.61-0.37  c-1.73-0.65-2.8-2.02-3.24-4.11c-0.45-2.19-0.22-5.14,0.67-8.87c2.11-0.64,2.93-1.37,2.23-3.43c-0.31,0.87-1.63,1.55-3.98,2.03  c-0.51,0.12-1.06,0.21-1.64,0.29c-0.57,0.09-1.21,0.16-1.92,0.22h-0.05h-0.01c-0.18,0.03-0.37,0.03-0.53,0.01  c-0.58-0.03-1.02-0.23-1.3-0.59C172.42,35.27,172.23,34.59,172.19,33.66z M260,23.47c-2.21-1.58-2.46-3.28-0.74-5.09l0.05-0.06  l0.01-0.02c0.38-0.48,0.79-0.9,1.21-1.26c0.42-0.35,0.86-0.66,1.32-0.92h0.01c2.4-1.33,5.44-1.29,9.11,0.13h0.01l0.05,0.03  c0.49,0.19,1,0.37,1.48,0.53c1.57,0.5,5.93,1.45,6.19-1.3c-0.9,0.47-2.33,0.44-4.27-0.06c-0.43-0.1-0.86-0.23-1.28-0.36  c-0.43-0.15-0.9-0.32-1.4-0.51h-0.01l-0.05-0.01c-4.18-1.63-7.73-1.63-10.64-0.02v0.02c-0.57,0.3-1.12,0.69-1.64,1.13  c-0.51,0.45-1,0.95-1.46,1.5v0.01C255.14,20.21,256.72,24.53,260,23.47z M211.03,39.96l0.05,0.01c1.97,0.83,3.77,1.67,5.41,2.54  c1.63,0.87,3.11,1.77,4.43,2.7c6.6,4.67,9.17,10.07,7.73,16.2l-0.01,0.02c-0.47,2.28-1.24,4.18-2.29,5.73  c-1.03,1.53-2.34,2.7-3.94,3.53c4.53,0.81,7.36-5.97,7.99-8.97C233.03,50.57,222.08,41.9,211.03,39.96z M192.15,30.48h0.02  c1.05-0.19,2.01-0.29,2.9-0.3c0.89-0.02,1.71,0.04,2.49,0.18c3.84,0.68,6.18,3.44,7,8.27C209.1,36.71,199.66,24.85,192.15,30.48z   M224.75,274.52L224.75,274.52c3.79,3.73,4.16,7.47,1.12,11.26c-1.92,2.38-3.11,4.83-3.55,7.17c-0.44,2.31-0.17,4.51,0.82,6.38  c0.98,1.87,2.69,3.42,5.1,4.44c2.55,1.07,5.87,1.55,9.97,1.22c1.96-13.88,0.43-24.94-4.63-33.17c-1.39-2.28-3.05-4.35-4.99-6.19  c-1.94-1.86-4.14-3.5-6.6-4.92c-2.33-1.06-4.58-2.16-6.77-3.27c-0.86,1.04-0.99,2.45-0.41,4.24c0.7,2.12,2.39,4.73,5.06,7.78  C221.23,271.02,222.87,272.71,224.75,274.52z M219.86,365.55c-1.67-0.48-3.16-0.65-4.46-0.51c-1.71,0.19-3.11,0.9-4.17,2.13  l-0.06,0.07l-0.05,0.09c-1.32,2.27-2.73,3.69-4.25,4.24c-1.47,0.53-3.11,0.25-4.91-0.84c-0.28,1.8,0.89,2.58,2.32,2.83  c4.76,4.79,7.84,9.61,9.22,14.44c1.23,4.28,1.11,8.61-0.35,12.96c-2.32-3.24-4.66-5.37-7.02-6.4c-2.83-1.23-5.64-0.92-8.43,0.97  l-0.78,0.52l0.5,0.74l0.05,0.07c1.17,1.75,2.18,3.44,3.03,5.07c0.84,1.61,1.53,3.16,2.06,4.67c2.51,7.11,1.43,12.88-3.26,17.27  c-0.19-0.32-0.38-0.63-0.58-0.91c-0.38-0.57-0.79-1.1-1.21-1.62c-2.16-2.64-4.75-4.4-7.77-5.3c-2.71-1.42-4.36-3.21-4.94-5.37  c-0.6-2.21-0.12-4.84,1.44-7.91c-2.79,1.08-3.82,5.65-3.29,8.04c-0.41,1.37-0.87,2.68-1.37,3.91c-0.53,1.3-1.11,2.54-1.74,3.7  c-3.2,5.99-7.71,10.33-13.53,13.02l0.34,0.83l-0.46,0.8c5.51,2.93,8.85,6.39,9.99,10.35c1.01,3.53,0.31,7.5-2.11,11.96  c-1.07-1.9-3.06-2.93-5.93-3.08c-0.68-0.03-1.41-0.02-2.17,0.04c-0.75,0.07-1.57,0.17-2.45,0.35h-0.01l-0.19,0.03l-0.16,0.12  c-2.83,1.87-4.64,4.53-5.41,7.98c-0.15,0.65-0.25,1.35-0.33,2.08c-0.05,0.51-0.08,1.04-0.09,1.6c-1.68,0.48-3.15,0.28-4.36-0.64  h-0.01c-1.33-0.99-2.43-2.81-3.29-5.47c-0.15-0.45-0.28-0.91-0.41-1.4c1.09-2.49,1.68-4.04,0.04-8.38  c-0.25,5.66-2.15,10.09-5.73,13.28c-3.61,3.23-8.96,5.23-16.04,6.01l-0.7,0.09l-0.14,0.68c-0.39,1.99-1.05,3.74-1.96,5.28  c-0.17,0.28-0.36,0.57-0.56,0.86c-0.19,0.26-0.36,0.51-0.55,0.73c-6.5,4.15-12.19,4.69-17.07,1.64c-0.97-0.61-1.91-1.35-2.83-2.25  c-0.72-0.7-1.44-1.51-2.14-2.41l0.24-0.14c1.82-1.03,3.6-1.19,5.34-0.46l0.76,0.32l0.38-0.7c2.61-4.11,4.12-7.42,4.52-9.95  c0.19-1.23,0.11-2.29-0.21-3.19c-0.33-0.94-0.95-1.68-1.83-2.21c-0.77-0.46-1.75-0.77-2.93-0.9c-3.11-1.21-6.02,0.03-8.74,3.7h-0.01  c-0.5,0.67-0.99,1.42-1.48,2.28c-0.25,0.45-0.51,0.91-0.75,1.39c0.03-0.16,0.06-0.33,0.12-0.52c0.33-1.31,1.15-3.21,2.43-5.69  l0.08-0.23l0.08-0.4c0.73-3.15,2.04-5.36,3.95-6.63c1.91-1.29,4.49-1.69,7.71-1.17v-0.02l0.44,0.07l0.03,0.02h0.04  c0.72,0.09,1.41,0.2,2.02,0.35c0.62,0.13,1.22,0.3,1.78,0.51c2.74,0.96,4.53,2.58,5.34,4.88c1.72-2.38-2.07-3.99,0.34-4.5  c1.07-0.22,2.1-0.51,3.1-0.84c2.42-0.84,10.57-3.22,10.25-10.61c-2.5,4.34-6.09,7.3-10.75,8.9c-0.91,0.32-1.87,0.58-2.88,0.8  c-0.94,0.19-1.91,0.35-2.92,0.45c-0.56-0.29-1.16-0.55-1.8-0.79h0c-0.61-0.21-1.26-0.39-1.97-0.55c-0.71-0.16-1.45-0.29-2.2-0.37  l-0.04-0.02v0.02l-0.41-0.08c-3.7-0.58-6.71-0.08-9.04,1.48c-2.19,1.48-3.72,3.86-4.59,7.15c-0.68-0.56-0.61-1.81,0.2-3.76  c2.11-2.22,3.43-4.21,3.97-5.93c0.31-1,0.38-1.93,0.18-2.77c-0.19-0.87-0.64-1.63-1.35-2.29c-0.86-0.81-2.1-1.47-3.73-1.96  c0.42-3.01,1.89-4.98,4.4-5.88c0.57-0.21,1.17-0.35,1.82-0.45c0.67-0.1,1.39-0.16,2.17-0.17h0.01h0.16h0.03  c2.62-0.09,4.66,0.3,6.1,1.2c1.39,0.86,2.25,2.21,2.6,4.05l0.05,0.17l0.09,0.14c3.07,4.46,10.38,3.43,14.17-2.1l-0.12,0.07  c-0.9,0.54-1.78,1.02-2.63,1.44c-0.83,0.39-1.61,0.73-2.35,0.99h0.01c-3.47,1.19-5.97,0.74-7.48-1.33  c-0.47-2.22-1.58-3.88-3.33-4.97c-1.74-1.07-4.1-1.57-7.07-1.46h-0.14h-0.01c-0.86,0.01-1.68,0.07-2.43,0.2  c-0.78,0.12-1.49,0.29-2.16,0.53c-1.9,0.68-3.34,1.8-4.3,3.37c-1.35-0.9-2.03-1.82-2.02-2.74c0.01-1.09,0.92-2.32,2.74-3.7  c2.28-0.65,4.11-1.45,5.5-2.41h0.01c1.39-0.96,2.34-2.08,2.88-3.35c0.54-1.28,0.64-2.7,0.29-4.23c-0.26-1.16-0.78-2.39-1.56-3.7  c3.68-1.56,6.5-1.55,8.48,0.08c2.23,1.83,3.51,5.72,3.85,11.62l0.01,0.29l0.2,0.23c3.66,4.09,6.96,6.34,9.88,6.75  c0.6,0.07,1.2,0.08,1.77,0c0.59-0.07,1.15-0.22,1.69-0.45h0.01h0.01l0.01-0.02c4.24-1.86,8.33-5.79,12.25-11.8  c3.86-5.89,7.57-13.82,11.17-23.78c2.45-5.99,2.29-11.58-0.47-16.78c-2.71-5.08-7.93-9.75-15.68-13.98  c-5.94-4.12-10.26-8.58-12.96-13.35c-2.68-4.75-3.75-9.83-3.24-15.26l0.12-1.16l-1.16,0.25l-0.1,0.03  c-1.06,0.23-2.06,0.49-2.99,0.78c-0.94,0.3-1.81,0.62-2.6,0.97c-3.22,1.42-5.36,3.31-6.42,5.66c-4.62-10.23-3.82-18.64,2.39-25.23  l1.25-1.33l-1.76-0.16c-7.4-0.71-12.19-3.32-14.38-7.84c-2.02-4.18-1.89-10.03,0.42-17.55c0.28,0.55,0.55,1.06,0.83,1.57  c0.64,1.1,1.31,2.11,2.02,3.02c3.73,4.76,8.54,6.87,14.45,6.31l1.13-0.1l-0.29-1.05c-1.38-5.14-1.12-9.9,0.77-14.26  c1.72-3.99,4.81-7.68,9.27-11.05c0,1.15,0.02,2.19,0.07,3.15c0.13,2.45,0.43,4.33,0.9,5.57c0.69,1.86,2.13,1.95,3.15,3.43  c0.32,0.46,0.6,0.93,0.85,1.38c1.18,2.22,1.39,4.2,0.63,5.92l-0.98,2.62l2.48-1.73c1.54-1.8,3.44-3.67,5.7-5.59  c2.27-1.93,4.89-3.9,7.82-5.86c14.83-9.99,38.05-20.26,67.78-27.35c-0.52,1.31-0.5,2.83,0.08,4.59c0.77,2.35,2.57,5.14,5.4,8.37  c1.4,1.61,3.06,3.33,4.98,5.15l0.01,0.02c3.02,2.97,3.37,5.94,1.03,8.85c-2.13,2.61-3.45,5.37-3.95,8.01  c-0.52,2.7-0.19,5.3,0.98,7.5c1.16,2.21,3.15,4.02,5.94,5.21c2.72,1.15,6.22,1.68,10.47,1.36c-0.15,0.99-0.33,1.98-0.52,2.99  c-3.23-0.21-6.37-0.23-9.47-0.04c-3.34,0.19-6.6,0.62-9.76,1.26c-5.01,1.02-31.4,8.58-40.77,28.99c1.97-2.55,4-4.94,6.1-7.14  c-0.02,0.33,0,0.68,0,1.02c0.02,1.07,0.1,2.14,0.24,3.18c0.71,5.35,2.96,10.4,6.71,15.14l0.01,0.01l0.01,0.02  c0.35,0.44,0.76,0.81,1.22,1.16c0.45,0.34,0.97,0.64,1.53,0.9c2.77,1.28,6.88,1.6,12.32,0.93c0.61,0,1.21,0,1.79,0.03  c4.38,0.17,7.61,1.16,9.67,2.94C219.01,359.87,219.93,362.33,219.86,365.55z M178.7,394.11v0.2c-0.07,1.67-0.24,3.32-0.54,4.96  c-0.3,1.63-0.7,3.22-1.21,4.77c-2.63,8-8.21,15.27-16.74,21.77C167.37,426.55,183.68,403.46,178.7,394.11z M389.43,129.7  c4.54-11.99,6.26-26.02-7.87-30.68c-41.54-6.66-23.93,57.54-13.17,76.62c19.68,34.33,35.92,94.36-6.31,122.61  c-19.67,9.84-47.44,3.16-60.92-8.86c-1.13-2.44-3.81-6.66-7.94-7.68c4.61,4.08,7.53,9.58,8.75,16.53c1.23,7.03,0.74,15.53-1.49,25.5  l-0.01,0.07c-0.94,6.69,1.28,11.67,6.67,14.95c5.2,3.16,13.4,4.67,24.6,4.52h0.4l0.28-0.3c9.82-10.77,18.76-15.67,26.81-14.73  c1.54,0.18,3.07,0.58,4.56,1.19c1.06,0.45,2.13,1,3.18,1.67c-4.84,2.44-8.8,5.89-11.86,10.38c-0.64,0.94-1.26,1.94-1.84,3  c-0.57,1.05-1.1,2.15-1.59,3.28l-0.01,0.02l-0.77,1.8l1.86-0.64c5.75-1.99,10.33-2.64,13.74-1.95c3.26,0.65,5.45,2.58,6.58,5.78  c0.7,2.57,2.09,4.46,4.17,5.65c1.64,0.94,3.7,1.45,6.17,1.51c-2.87,3.35-6.1,5.9-9.66,7.6c-3.95,1.9-8.33,2.82-13.15,2.75  c-1.25-1.89-4.85-4.18-7.52-2.64c2.89,0.42,5.02,1.87,6.4,4.37c1.44,2.57,2.1,6.27,1.99,11.06c-1.05,4.03-0.68,7.15,1.08,9.33  c1.33,1.65,3.45,2.71,6.33,3.21c-9.55,4.51-16.86,2.89-21.9-4.85c-1.12-3.31-2.27-5.52-3.46-6.6c-1.05-0.97-2.16-1.16-3.29-0.6  h-0.01c-0.96,0.48-1.88,1.55-2.75,3.21c-2.13,4.02-6.33,20.38-4.91,25.43c2.2-12.44,4.37-20.65,6.49-24.68  c0.68-1.28,1.31-2.06,1.9-2.37c0.39-0.19,0.83-0.07,1.3,0.36v-0.01c0.98,0.9,1.98,2.88,3,5.91c0.39,4.38-0.33,10.02-2.16,16.88  c-1.87,6.97-4.88,15.21-9.03,24.71l-0.73,0.93l1.25,0.26c6.74,1.96,11.18,4.98,13.31,9.03c1.91,3.61,2,8.14,0.24,13.56  c-1.58-1.89-3.98-2.59-7.2-2.12c-0.73,0.1-1.52,0.27-2.36,0.52c-0.84,0.23-1.72,0.54-2.61,0.89l-0.04,0.02l-0.19,0.07l-0.14,0.13  c-2.69,2.63-4.09,5.87-4.17,9.74c-0.02,0.74,0.01,1.51,0.09,2.29c0.05,0.58,0.15,1.16,0.25,1.75c-1.81,0.95-3.51,1.04-5.09,0.32  c-1.7-0.8-3.32-2.53-4.85-5.21c-0.27-0.46-0.53-0.96-0.78-1.45c0.62-2.67,0.88-6.62-1.59-9.07c1.39,8.87-1.6,15.76-8.96,20.67  c-1.45,0.97-3.09,1.86-4.88,2.69c-1.81,0.83-3.79,1.57-5.93,2.25h-0.01h-0.02l-0.68,0.22v0.7c0,2.22-0.33,4.26-1.01,6.11  c-0.13,0.36-0.28,0.72-0.44,1.06c-0.15,0.32-0.3,0.64-0.47,0.94c-6.26,5.89-12.41,7.73-18.47,5.53c-1.21-0.43-2.42-1.03-3.61-1.77  c-1.02-0.64-2.03-1.39-3.05-2.25c1.92-1.75,3.98-2.41,6.17-1.99h0.69l0.36-0.6c1.98-4.96,2.91-8.84,2.8-11.63  c-0.06-1.35-0.36-2.47-0.9-3.35c-0.57-0.91-1.39-1.56-2.45-1.95c-0.93-0.32-2.07-0.43-3.39-0.32c-3.62-0.61-6.53,1.34-8.7,5.81  c-0.4,0.82-0.77,1.75-1.12,2.77c-0.24,0.7-0.47,1.42-0.68,2.19c-0.05-0.28-0.06-0.65-0.04-1.13c0.08-1.49,0.57-3.71,1.44-6.68  l0.04-0.25c0.04-3.8,1.02-6.63,2.94-8.53c1.92-1.89,4.84-2.89,8.77-2.97h0.04l0.06-0.02c0.82-0.06,1.59-0.09,2.31-0.07  c0.72,0.03,1.42,0.07,2.07,0.17c3.26,0.44,5.6,1.81,7,4.12c1.29-4.05-4.72-3.27-0.76-4.93c1.13-0.48,2.21-1,3.21-1.58  c2.29-1.31,11.27-7.82,9.12-13.54c-1.82,5.24-5.13,9.24-9.95,11.99c-0.93,0.54-1.94,1.03-3,1.48c-1,0.42-2.04,0.8-3.12,1.13  c-0.68-0.21-1.4-0.35-2.16-0.45c-0.71-0.11-1.48-0.16-2.28-0.18c-0.8-0.03-1.63,0-2.48,0.06l-0.06,0.01  c-4.39,0.11-7.73,1.29-10.01,3.53c-2.11,2.09-3.26,5.02-3.48,8.84c-0.38-0.13-0.65-0.37-0.81-0.71c-0.33-0.74-0.32-1.93,0.04-3.6  c1.82-2.84,2.84-5.27,3.06-7.23c0.12-1.13-0.01-2.12-0.39-2.97c-0.4-0.87-1.04-1.58-1.95-2.13c-1.12-0.68-2.65-1.12-4.57-1.29  c-0.23-3.47,1.01-5.96,3.7-7.5c0.58-0.33,1.23-0.64,1.94-0.88c0.73-0.25,1.53-0.46,2.39-0.64h0.01l0.03-0.01h0.03  c2.87-0.67,5.22-0.68,7.02-0.03c1.74,0.64,3.01,1.91,3.8,3.83l0.08,0.17l0.12,0.12c4.53,4.31,13.83,0.22,15.12-5.2l-0.02,0.02  l-0.01,0.01c-0.9,0.8-1.77,1.51-2.6,2.14c-0.82,0.62-1.62,1.15-2.39,1.6c-3.63,2.1-6.54,2.18-8.71,0.22  c-0.99-2.29-2.56-3.82-4.69-4.6c-2.14-0.77-4.82-0.79-8.04-0.03h-0.01c-0.95,0.19-1.84,0.44-2.64,0.73  c-0.84,0.29-1.59,0.62-2.27,1.02c-2.01,1.15-3.38,2.71-4.1,4.67c-0.9-0.37-1.6-0.77-2.11-1.23c-0.45-0.41-0.73-0.86-0.84-1.35  c-0.11-0.48-0.05-1.04,0.18-1.67c0.33-0.9,1.02-1.93,2.05-3.06c2.36-1.19,4.2-2.45,5.52-3.79c1.31-1.3,2.11-2.7,2.42-4.17  c0.31-1.48,0.11-3-0.61-4.56c-0.55-1.21-1.41-2.44-2.57-3.7c3.78-2.57,6.96-3.2,9.54-1.85c2.88,1.51,5.15,5.41,6.81,11.73l0.08,0.29  l0.23,0.18c3.38,2.5,6.38,4.06,8.96,4.75c2.75,0.71,5.09,0.42,7-0.87l0.01-0.02c4.25-2.9,7.87-8.01,10.87-15.31  c2.95-7.19,5.31-16.52,7.08-28.03l0.02-0.12l-0.01-0.1c-0.18-2.08-0.56-3.73-1.17-4.94c-0.48-0.97-1.11-1.68-1.89-2.12  c-0.79-0.46-1.71-0.61-2.74-0.48c-0.87,0.13-1.83,0.47-2.86,1c-7.7,2.69-14.75,2.58-21.14-0.32c-1.26-0.57-2.48-1.25-3.67-2.02  c-1.15-0.75-2.28-1.6-3.38-2.53c-0.08-0.31-0.18-0.6-0.29-0.86c-0.84-2.05-2.61-3.18-5.67-2.07c2,0.27,3.32,1.21,3.99,2.82  c0.72,1.75,0.73,4.29,0.03,7.61c-0.7,2.6-0.47,5.11,0.7,7.52c0.94,1.94,2.5,3.82,4.66,5.62c-6.77,1.83-12.06,0.39-15.87-4.33  c-0.81-1.01-1.57-2.18-2.25-3.5c-0.7-1.32-1.33-2.8-1.89-4.41v-0.03l-0.01-0.02l-1.39-3.77l-0.37,4.11c-0.08,1-0.2,1.97-0.34,2.92  c-0.93,6.17-3.02,10.74-6.28,13.69c-3.23,2.93-7.66,4.31-13.28,4.12l-0.5-0.01c2.58-3.27,4.28-6.97,5.09-11.12  c0.91-4.67,0.68-9.91-0.7-15.7l-0.25-1.07l-1.01,0.53c-2.36,1.26-4.51,2.11-6.43,2.56c-2.46,0.55-4.54,0.45-6.26-0.33  c-1.72-0.77-3.1-2.22-4.15-4.36v-0.02c-0.69-1.38-1.23-3.05-1.63-4.99c4.96-0.78,8.71-2.35,11.25-4.7c2.78-2.58,4.1-6.05,3.96-10.41  l-0.02-0.25l-0.13-0.2c-2.5-3.74-3.9-8.97-4.24-15.68c-0.32-6.78,0.45-15.05,2.34-24.8c7.31-23.88,7.22-41.95-0.28-54.2  c-1.47-2.41-3.23-4.59-5.26-6.53c-2.03-1.94-4.35-3.67-6.95-5.17h-0.01l-0.01-0.02l-0.06-0.03c-2.11-0.97-4.17-1.96-6.18-2.97  l-1.42-0.71c-18.03-9.23-31.47-19.83-40.33-31.8c-1.87-2.53-3.54-5.11-4.99-7.75c5.8,5.5,14.62,8.81,26.43,9.9l3.28,0.3l-2.58-1.93  c-6.44-4.8-9.35-10.2-8.75-16.2c0.12-1.16,0.37-2.37,0.76-3.57c0.37-1.21,0.88-2.42,1.52-3.67c3.41-3.7,6.37-8.42,8.86-14.14  c0.41-0.93,0.81-1.9,1.2-2.9c1.17,15.31,6.02,25.9,14.56,31.74c1.83,1.25,3.83,2.29,5.99,3.11c2.15,0.8,4.47,1.39,6.96,1.77  l0.04,0.01l1.8,0.28l-0.8-1.61c-1.91-3.8-2.27-7.95-1.1-12.45c0.22-0.87,0.52-1.77,0.87-2.7c0.34-0.9,0.75-1.81,1.2-2.73  c4.32-5.53,7.42-11.48,9.3-17.88c0.23-0.77,0.44-1.55,0.63-2.32c0.69,3.73,1.69,6.97,2.99,9.7c0.03,2.03,0.33,4.12,0.88,6.26  c0.57,2.16,1.41,4.4,2.53,6.71c5.65,11.64,18.38,24.95,38.21,39.93c1.27,1.19,2.5,2.4,3.68,3.6c1.18,1.22,2.32,2.42,3.39,3.63  c7.56,8.4,10.02,16.62,19.35,22.74c18.73,11.49,38.38,11.76,55.35-5.31c17.28-21.68,6.02-52.66-3.51-73.85  c-8.32-18-19.74-33.88-22.67-54.11c-1.2-10.45-0.31-20.39,2.49-30.74c3.14-10.42,9.02-33.96-9.19-31.61  c-6.04-0.25-12.85,0.46-17.84,4.61c0.1-8.22,1.33-20.09,11.9-21.05c6.42-0.47,13-0.42,16.51,5.51l3.4,8.8  c8.69-14.22,15.43-27.29,2.01-40c-5.53-2.71-11.54-5.53-18-5.21c10.77-14.93,37.47-9.62,46.48,2.9c8.34,13.18,0.66,28.23-5.73,41.25  c4.58,0.35,9.14,0.6,13.59,1.64C408.77,82.34,408.19,117.02,389.43,129.7z M292.44,298.77c-0.87-3.03-4.87-13.6-9.88-18.52  l0.03,0.04c1.83,3.29,3.43,6.53,4.78,9.71c1.35,3.15,2.46,6.27,3.34,9.33c4.49,15.63,2.79,29.75-5.12,42.38  C299.17,330.44,293.34,301.86,292.44,298.77z" />
<path
   id="Rachen_1_"
   fill="#BE1622"
   d="M220.72,61.22c0.03-0.76-0.04-1.58-0.22-2.48c-0.3-1.51-0.88-3.22-1.77-5.14  c-3.91-5.4-7.8-7.91-11.68-7.51l-0.11,0.02c1.6,0.98,2.86,2.07,3.8,3.26c1.22,1.57,1.87,3.31,1.94,5.22  c0.74,0.35,1.46,0.76,2.16,1.19c1.34,0.86,2.61,1.87,3.81,3.06C219.36,59.58,220.05,60.37,220.72,61.22L220.72,61.22z"
   style="fill:#ffcc00;fill-opacity:1" />
<path
   id="Krallen_1_"
   fill="#E12418"
   d="M57.75,142.75c-1.02,0.67-2.03,1.25-3.03,1.73c-1.08,0.54-2.14,0.97-3.17,1.29  c-4.72,1.46-8.94,0.71-12.69-2.31l0.57-0.2c0.65-0.25,1.27-0.51,1.84-0.75c2.81-1.28,4.54-2.74,5.19-4.38  c3.64-1.35,6.44-1.88,8.39-1.61c0.76,0.12,1.38,0.35,1.84,0.71h0.01c0.46,0.35,0.78,0.84,0.99,1.47l0,0  C58.02,139.69,58.03,141.06,57.75,142.75L57.75,142.75z M18.5,106.17c1.63-1.25,2.81-2.44,3.56-3.61c0.59-0.94,0.9-1.87,0.89-2.75  c0-0.9-0.32-1.8-0.94-2.7c-0.85-1.22-2.26-2.44-4.23-3.66c-3.7,0.76-6.84,2.08-9.38,3.99c-0.39,0.29-0.8,0.63-1.21,1H7.17  c-1.57,1.41-2.89,3.09-3.96,5.02c3-0.67,5.72-0.83,8.16-0.46C14.1,103.4,16.48,104.47,18.5,106.17L18.5,106.17z M32.98,77.15  c2.63-0.39,4.6-1.48,5.92-3.28c1.44-1.95,2.15-4.75,2.17-8.41c0-0.45-0.02-0.93-0.03-1.41c-0.92-0.22-1.81-0.38-2.7-0.49  c-1.08-0.15-2.14-0.22-3.19-0.23c-4.7-0.06-9.14,1.2-13.32,3.78c2.89,0.61,5.22,1.35,7,2.23c1.72,0.86,2.95,1.87,3.69,3.02h-0.01  c0.79,1.22,1.01,2.57,0.67,4.07C33.13,76.65,33.07,76.9,32.98,77.15L32.98,77.15z M58.56,71.34c2.6,0.1,4.6-0.2,5.98-0.94  c1.43-0.75,2.21-2,2.32-3.77c-1.27-3.19-3.12-5.36-5.54-6.49c-2.13-1-4.72-1.23-7.8-0.68c2.47,2.78,4.09,5.18,4.88,7.21  C59.11,68.5,59.17,70.06,58.56,71.34L58.56,71.34z M107.19,469.94c2.23-3.57,3.51-6.43,3.84-8.55c0.15-0.95,0.1-1.71-0.11-2.32  c-0.21-0.56-0.58-1.02-1.13-1.35c-0.58-0.35-1.36-0.58-2.33-0.68l-0.14-0.01l-0.1-0.05c-2.28-0.91-4.5,0.09-6.66,3.01l0,0  c-0.47,0.63-0.92,1.32-1.37,2.09c-0.45,0.79-0.9,1.65-1.35,2.61v0.01l-0.24,0.53h-0.07c-0.34,0.61-0.64,1.19-0.93,1.77  c-0.33,0.71-0.62,1.38-0.85,2.03c-0.96,2.69-1.12,5.1-0.49,7.24c1.94-2.59,3.86-4.4,5.75-5.47  C103.11,469.6,105.17,469.33,107.19,469.94L107.19,469.94z M97.62,449.11c1.5-1.7,2.43-3.16,2.83-4.43c0.22-0.7,0.26-1.3,0.14-1.84  c-0.12-0.52-0.4-1.01-0.86-1.44c-0.74-0.7-1.92-1.26-3.51-1.7c-4.08,0.86-6.93,2.31-8.55,4.33c-1.38,1.74-1.88,3.95-1.48,6.65  c1.19-0.8,2.3-1.45,3.33-1.98c1.84-0.91,3.44-1.35,4.77-1.29C95.7,447.47,96.8,448.03,97.62,449.11L97.62,449.11z M97.89,425.51  c1.74-0.55,3.14-1.19,4.23-1.93h-0.01c1.08-0.74,1.81-1.58,2.2-2.49c0.38-0.93,0.45-1.98,0.18-3.14c-0.25-1.12-0.81-2.33-1.65-3.67  c-0.46-0.03-0.89-0.04-1.28-0.04h-0.01c-3.61-0.03-6.42,0.78-8.4,2.45c-1.95,1.65-3.15,4.18-3.61,7.58  c2.14-1.06,3.88-1.54,5.23-1.41C96.39,423,97.42,423.88,97.89,425.51L97.89,425.51z M97.92,248.82c-1.27-1.09-2.43-1.73-3.49-1.93  l0,0c-0.64-0.13-1.25-0.09-1.81,0.12v0.02c-0.58,0.22-1.14,0.62-1.67,1.22c-1.36,1.51-2.53,4.14-3.5,7.88  c1.01,1.35,1.25,3.53,0.71,6.52c-0.12,0.6-0.25,1.25-0.42,1.92l-0.16,0.58c4.73-1.7,7.83-4.91,9.31-9.61  c0.33-1.03,0.57-2.13,0.75-3.31C97.79,251.15,97.89,250.01,97.92,248.82L97.92,248.82z M44.13,264.21c-0.1-1.98-0.43-3.57-1-4.76  c-0.46-0.97-1.07-1.67-1.83-2.1c-0.76-0.42-1.71-0.6-2.83-0.51c-1.53,0.13-3.38,0.72-5.54,1.8c-1.51,3.5-2.2,6.79-2.05,9.87  c0.02,0.48,0.06,0.99,0.15,1.51H31c0.29,2.03,0.94,3.96,1.98,5.8c1.16-2.86,2.6-5.24,4.33-7.13  C39.24,266.58,41.52,265.08,44.13,264.21L44.13,264.21z M27.89,237.82c1.19-2.41,1.41-4.6,0.65-6.59c-0.81-2.16-2.78-4.15-5.88-5.94  c-0.38-0.22-0.78-0.43-1.21-0.65c-0.7,0.67-1.37,1.35-1.98,2.05c-0.75,0.84-1.44,1.7-2.05,2.58c-2.78,3.95-4.28,8.32-4.51,13.11  c2.19-2.15,4.16-3.76,5.95-4.84c1.73-1.04,3.29-1.59,4.7-1.66l0,0c1.48-0.07,2.77,0.41,3.83,1.41  C27.57,237.46,27.73,237.63,27.89,237.82L27.89,237.82z M37.79,213.36c1.59-2.16,2.48-3.99,2.67-5.51c0.19-1.58-0.44-2.85-1.88-3.8  c-3.44-0.48-6.34,0.03-8.71,1.52c-2.08,1.32-3.78,3.4-5.1,6.27c3.79-0.74,6.77-0.94,8.95-0.62  C35.69,211.51,37.05,212.23,37.79,213.36L37.79,213.36z M172.98,457.57c-0.56-2.18-2.25-3.34-5.03-3.48  c-0.58-0.03-1.23-0.02-1.93,0.04c-0.66,0.06-1.36,0.15-2.09,0.28c-2.3,1.58-3.78,3.82-4.42,6.69c-0.14,0.59-0.23,1.22-0.3,1.86  c-0.03,0.34-0.06,0.68-0.07,1.03c2.76-0.49,4.56,0.25,5.38,2.19c0.72,1.73,0.55,4.43-0.52,8.13c2.63-0.91,4.66-2.57,6.13-4.93  C171.89,466.51,172.84,462.57,172.98,457.57L172.98,457.57z M347.51,459.15c-1.11-2.26-3.24-3.18-6.38-2.71  c-0.67,0.09-1.39,0.25-2.13,0.46c-0.7,0.19-1.46,0.45-2.28,0.77c-2.23,2.24-3.38,4.99-3.45,8.29c-0.02,0.67,0.01,1.36,0.08,2.08  c0.04,0.39,0.1,0.8,0.16,1.21c2.94-1.16,5.07-0.79,6.39,1.12c1.19,1.7,1.58,4.69,1.18,8.97c4.22-2.39,6.53-6.37,6.96-11.93  c0.08-1.22,0.08-2.52,0-3.92C347.96,462.1,347.77,460.66,347.51,459.15L347.51,459.15z M277.82,486.92  c1.7-4.38,2.49-7.78,2.39-10.17c-0.04-1.04-0.26-1.88-0.65-2.51c-0.35-0.58-0.89-1-1.58-1.23c-0.74-0.26-1.66-0.33-2.77-0.23  l-0.12,0.02l-0.12-0.03c-2.76-0.49-5.01,1.07-6.79,4.73c-0.37,0.77-0.72,1.62-1.04,2.55c-0.32,0.93-0.63,1.97-0.92,3.1l-0.01,0.05  l-0.14,0.55l-0.06,0.01c-0.25,0.73-0.47,1.46-0.65,2.15c-0.21,0.84-0.38,1.62-0.5,2.39c-0.49,3.21-0.11,5.91,1.15,8.12  c0.27-0.57,0.55-1.11,0.83-1.61c0.52-0.96,1.06-1.81,1.61-2.6C271.22,488.31,274.34,486.55,277.82,486.92L277.82,486.92z   M262.71,466.63c1.32-2.2,2.06-4.05,2.22-5.53c0.09-0.8,0.01-1.5-0.25-2.06c-0.26-0.55-0.68-1.02-1.29-1.39  c-0.99-0.61-2.43-0.97-4.31-1.09c-4.33,1.83-7.17,4.02-8.52,6.57c-1.18,2.22-1.23,4.79-0.14,7.7c2.69-2.68,5.04-4.37,7.06-5.06  C259.58,465.06,261.32,465.34,262.71,466.63L262.71,466.63z M257.79,441.16c1.85-0.99,3.29-2,4.34-3.06  c1.03-1.04,1.67-2.12,1.9-3.22c0.22-1.1,0.06-2.25-0.5-3.47c-0.53-1.16-1.41-2.39-2.66-3.66c-0.52,0.07-1.02,0.16-1.49,0.23v0.01  c-4,0.76-6.93,2.27-8.75,4.5c-1.82,2.24-2.61,5.27-2.34,9.1v0.09c2.17-1.67,4.02-2.59,5.54-2.75  C255.63,438.75,256.94,439.49,257.79,441.16L257.79,441.16z"
   style="fill:#ffcc00;fill-opacity:1" />
<path
   id="Zunge_1_"
   fill="#E12418"
   d="M212.01,65.63c1.29,0.22,2.62,0.5,4,0.83c0.67-0.17,1.27-0.41,1.79-0.67h0.01  c1.08-0.55,1.87-1.29,2.34-2.23c-0.88-1.27-1.83-2.41-2.83-3.4c-1.09-1.1-2.27-2.05-3.52-2.83c-6.42-4.06-14.86-4.06-25.33,0.01  v0.02c-13.79,5.27-24.38,7.94-31.79,7.98c-7.75,0.06-12.13-2.68-13.13-8.26l-0.01-0.02c-0.21-0.84-0.38-1.67-0.51-2.5  c-0.12-0.81-0.2-1.61-0.22-2.42c-0.16-4.08,0.89-7.87,3.14-11.35c0.56-1.71,0.63-2.93,0.21-3.66c-0.39-0.66-1.32-0.95-2.78-0.84l0,0  h-0.02c-0.94,0.09-1.84,0.29-2.68,0.6c-0.84,0.3-1.62,0.71-2.35,1.23c-3.85,2.76-6.3,8.55-7.34,17.39c-0.04,1.38-0.02,2.7,0.08,3.93  c0.39,4.91,1.95,8.53,4.69,10.9c2.74,2.38,6.7,3.51,11.88,3.42c1.43-0.03,2.95-0.14,4.57-0.36c2.21-0.51,4.39-1.01,6.49-1.54  c2.09-0.51,4.17-1.03,6.22-1.58c10.41-2.73,19.5-5.64,27.3-8.68l0.09-0.04l0.08-0.01c4.85-0.94,8.93-1.08,12.21-0.38  C207.83,61.88,210.3,63.36,212.01,65.63L212.01,65.63z"
   style="fill:#ffcc00;fill-opacity:1" />
<path
   id="Auge_2_"
   fill="#432918"
   d="M199.03,21.89c11.87,4.53,12.78-13.31,28.47-3.83c-6.91-2.38-10.71-3.41-15.55,1.57  c1.17-0.35,2.39-0.6,3.62-0.71l0.83-0.06c0.34-0.01,0.68-0.03,1.02-0.01c0.65,0.01,1.29,0.07,1.91,0.17  c0.62,0.1,1.24,0.26,1.83,0.48h0.01h0.01c0.76,0.29,2.55,1.06,3.7,1.77c0.24,0.15,0.46,0.29,0.65,0.45c0.75,0.6,1.32,1.28,2.15,1.86  c-0.5,1.09-2.69,2.7-8.12,4.42c-1.66,0.52-3.18,0.81-4.59,0.87h-0.44c-0.64,0-1.27-0.04-1.86-0.15c-2.04-0.33-3.74-1.27-5.07-2.78  c-0.63-0.71-1.18-1.55-1.64-2.51C203.94,23.98,199.19,23.54,199.03,21.89L199.03,21.89z" />
<path
   id="Auge_1_"
   fill="#F3F2F4"
   d="M216.91,27.08c1.45-1.65,1.89-3.38,1.32-5.21c-0.14-0.43-0.33-0.87-0.58-1.32l-0.11-0.17  c0.44,0.01,0.88,0.06,1.32,0.14c0.5,0.07,0.99,0.2,1.45,0.38h0.01l0,0c0.69,0.26,2.3,0.94,3.34,1.59c0.19,0.12,0.35,0.23,0.48,0.32  c0.09,0.07,0.17,0.15,0.2,0.19l0.01,0.01h0.01l0.03,0.04c0.21,0.26,0.45,0.49,0.71,0.73c-2.26,1.26-4.32,2.18-6.18,2.77  C218.22,26.78,217.55,26.95,216.91,27.08L216.91,27.08z M207.81,22.95c0.4,0.79,0.85,1.47,1.36,2.05c1.06,1.2,2.38,1.94,3.96,2.21  l0.19,0.04c-0.97-1.51-1.38-2.9-1.23-4.15c0.09-0.78,0.41-1.51,0.92-2.18c-1.35,0.36-2.63,0.87-3.69,1.45l0,0  C208.82,22.65,208.31,22.83,207.81,22.95L207.81,22.95z" />
</svg>