<?xml version="1.0" encoding="utf-8"?>
<!-- Generator: Adobe Illustrator 17.0.0, SVG Export Plug-In . SVG Version: 6.00 Build 0)  -->
<!DOCTYPE svg PUBLIC "-//W3C//DTD SVG 1.1//EN" "http://www.w3.org/Graphics/SVG/1.1/DTD/svg11.dtd">
<svg version="1.1"
	 id="svg2985" xmlns:svg="http://www.w3.org/2000/svg" xmlns:rdf="http://www.w3.org/1999/02/22-rdf-syntax-ns#" xmlns:dc="http://purl.org/dc/elements/1.1/" xmlns:cc="http://creativecommons.org/ns#"
	 xmlns="http://www.w3.org/2000/svg" xmlns:xlink="http://www.w3.org/1999/xlink" x="0px" y="0px" width="134px" height="134px"
	 viewBox="0 0 134 134" enable-background="new 0 0 134 134" xml:space="preserve">
<rect id="rect3047" x="-69.769" y="30.231" transform="matrix(-0.7071 0.7071 -0.7071 -0.7071 146.2112 30.6874)" fill="#ED1C24" width="273.038" height="30.788"/>
<path id="rect3753" fill="#74C2E7" d="M9.164,84.738l2.828-2.828l-0.707-0.707l-2.828,2.828L9.164,84.738z M12.7,81.203l2.828-2.828
	l-0.707-0.707l-2.828,2.828L12.7,81.203z M16.235,77.667l2.828-2.828l-0.707-0.707l-2.828,2.828L16.235,77.667z M19.771,74.131
	l2.828-2.828l-0.707-0.707l-2.828,2.828L19.771,74.131z M23.306,70.596l2.828-2.828l-0.707-0.707l-2.828,2.828L23.306,70.596z
	 M26.842,67.06l2.828-2.828l-0.707-0.707l-2.828,2.828L26.842,67.06z M30.377,63.525l2.828-2.828l-0.707-0.707l-2.828,2.828
	L30.377,63.525z M33.913,59.989l2.828-2.828l-0.707-0.707l-2.828,2.828L33.913,59.989z M37.448,56.454l2.828-2.828l-0.707-0.707
	l-2.828,2.828L37.448,56.454z M40.984,52.918l2.828-2.828l-0.707-0.707l-2.828,2.828L40.984,52.918z M44.519,49.383l2.828-2.828
	l-0.707-0.707l-2.828,2.828L44.519,49.383z M48.055,45.847l2.828-2.828l-0.707-0.707l-2.828,2.828L48.055,45.847z M51.59,42.312
	l2.828-2.828l-0.707-0.707l-2.828,2.828L51.59,42.312z M55.126,38.776l2.828-2.828l-0.707-0.707l-2.828,2.828L55.126,38.776z
	 M58.661,35.241l2.828-2.828l-0.707-0.707l-2.828,2.828L58.661,35.241z M62.197,31.705l2.828-2.828l-0.707-0.707l-2.828,2.828
	L62.197,31.705z M65.733,28.17l2.828-2.828l-0.707-0.707l-2.828,2.828L65.733,28.17z M69.268,24.634l2.828-2.828l-0.707-0.707
	l-2.828,2.828L69.268,24.634z M72.804,21.098l2.828-2.828l-0.707-0.707l-2.828,2.828L72.804,21.098z M76.339,17.563l2.828-2.828
	l-0.707-0.707l-2.828,2.828L76.339,17.563z M79.875,14.027l2.828-2.828l-0.707-0.707l-2.828,2.828L79.875,14.027z M83.41,10.492
	l2.828-2.828l-0.707-0.707l-2.828,2.828L83.41,10.492z M86.946,6.956l2.828-2.828l-0.707-0.707l-2.828,2.828L86.946,6.956z
	 M90.481,3.421l2.828-2.828l-0.707-0.707l-2.828,2.828L90.481,3.421z M94.017-0.115l2.828-2.828L96.138-3.65L93.31-0.822
	L94.017-0.115z M97.552-3.65l2.828-2.828l-0.707-0.707l-2.828,2.828L97.552-3.65z M101.088-7.186l2.828-2.828l-0.707-0.707
	l-2.828,2.828L101.088-7.186z M104.623-10.721l2.828-2.828l-0.707-0.707l-2.828,2.828L104.623-10.721z M147.646-15.384
	 M9.761,122.502l2.828-2.828l-0.707-0.707l-2.828,2.828L9.761,122.502z M13.296,118.966l2.828-2.828l-0.707-0.707l-2.828,2.828
	L13.296,118.966z M16.832,115.431l2.828-2.828l-0.707-0.707l-2.828,2.828L16.832,115.431z M20.367,111.895l2.828-2.828l-0.707-0.707
	l-2.828,2.828L20.367,111.895z M23.903,108.36l2.828-2.828l-0.707-0.707l-2.828,2.828L23.903,108.36z M27.438,104.824l2.828-2.828
	l-0.707-0.707l-2.828,2.828L27.438,104.824z M30.974,101.289l2.828-2.828l-0.707-0.707l-2.828,2.828L30.974,101.289z M34.509,97.753
	l2.828-2.828l-0.707-0.707l-2.828,2.828L34.509,97.753z M38.045,94.218l2.828-2.828l-0.707-0.707l-2.828,2.828L38.045,94.218z
	 M41.58,90.682l2.828-2.828l-0.707-0.707l-2.828,2.828L41.58,90.682z M45.116,87.147l2.828-2.828l-0.707-0.707l-2.828,2.828
	L45.116,87.147z M48.651,83.611l2.828-2.828l-0.707-0.707l-2.828,2.828L48.651,83.611z M52.187,80.076l2.828-2.828l-0.707-0.707
	l-2.828,2.828L52.187,80.076z M55.723,76.54l2.828-2.828l-0.707-0.707l-2.828,2.828L55.723,76.54z M59.258,73.005l2.828-2.828
	l-0.707-0.707l-2.828,2.828L59.258,73.005z M62.794,69.469l2.828-2.828l-0.707-0.707l-2.828,2.828L62.794,69.469z M66.329,65.933
	l2.828-2.828l-0.707-0.707l-2.828,2.828L66.329,65.933z M69.865,62.398l2.828-2.828l-0.707-0.707l-2.828,2.828L69.865,62.398z
	 M73.4,58.862l2.828-2.828l-0.707-0.707l-2.828,2.828L73.4,58.862z M76.936,55.327l2.828-2.828l-0.707-0.707l-2.828,2.828
	L76.936,55.327z M80.471,51.791l2.828-2.828l-0.707-0.707l-2.828,2.828L80.471,51.791z M84.007,48.256l2.828-2.828l-0.707-0.707
	L83.3,47.549L84.007,48.256z M87.542,44.72l2.828-2.828l-0.707-0.707l-2.828,2.828L87.542,44.72z M91.078,41.185l2.828-2.828
	l-0.707-0.707l-2.828,2.828L91.078,41.185z M94.613,37.649l2.828-2.828l-0.707-0.707l-2.828,2.828L94.613,37.649z M98.149,34.114
	l2.828-2.828l-0.707-0.707l-2.828,2.828L98.149,34.114z M101.685,30.578l2.828-2.828l-0.707-0.707l-2.828,2.828L101.685,30.578z
	 M105.22,27.043l2.828-2.828l-0.707-0.707l-2.828,2.828L105.22,27.043z M108.756,23.507l2.828-2.828l-0.707-0.707l-2.828,2.828
	L108.756,23.507z M112.291,19.971l2.828-2.828l-0.707-0.707l-2.828,2.828L112.291,19.971z M115.827,16.436l2.828-2.828l-0.707-0.707
	l-2.828,2.828L115.827,16.436z M119.362,12.9l2.828-2.828l-0.707-0.707l-2.828,2.828L119.362,12.9z M122.898,9.365l2.828-2.828
	l-0.707-0.707l-2.828,2.828L122.898,9.365z M126.433,5.829l2.828-2.828l-0.707-0.707l-2.828,2.828L126.433,5.829z M129.969,2.294
	l2.828-2.828l-0.707-0.707l-2.828,2.828L129.969,2.294z M133.504-1.242l2.828-2.828l-0.707-0.707l-2.828,2.828L133.504-1.242z
	 M137.04-4.777l2.828-2.828l-0.707-0.707l-2.828,2.828L137.04-4.777z M140.575-8.313l2.828-2.828l-0.707-0.707l-2.828,2.828
	L140.575-8.313z M144.111-11.848l2.828-2.828l-0.707-0.707l-2.828,2.828L144.111-11.848z"/>
<text transform="matrix(0.7071 -0.7071 0.7071 0.7071 14.1209 103.8662)" fill="#FFFFFF" font-family="'MyriadPro-Bold'" font-size="16">Requires Upgrade</text>
</svg>
