<?xml version="1.0" encoding="utf-8"?>
<!-- Generator: Adobe Illustrator 17.0.0, SVG Export Plug-In . SVG Version: 6.00 Build 0)  -->
<!DOCTYPE svg PUBLIC "-//W3C//DTD SVG 1.1//EN" "http://www.w3.org/Graphics/SVG/1.1/DTD/svg11.dtd">
<svg version="1.1"
	 id="svg2985" xmlns:svg="http://www.w3.org/2000/svg" xmlns:rdf="http://www.w3.org/1999/02/22-rdf-syntax-ns#" xmlns:dc="http://purl.org/dc/elements/1.1/" xmlns:cc="http://creativecommons.org/ns#"
	 xmlns="http://www.w3.org/2000/svg" xmlns:xlink="http://www.w3.org/1999/xlink" x="0px" y="0px" width="134px" height="134px"
	 viewBox="0 0 134 134" enable-background="new 0 0 134 134" xml:space="preserve">
<rect id="rect3047" x="-69.769" y="30.231" transform="matrix(-0.7071 0.7071 -0.7071 -0.7071 146.2112 30.6874)" fill="#ED1C24" width="273.038" height="30.788"/>
<path id="rect3753" fill="#FEEEEE" d="M-1.888,95.738l2.828-2.828l-0.707-0.707l-2.828,2.828L-1.888,95.738z M1.648,92.203
	l2.828-2.828l-0.707-0.707l-2.828,2.828L1.648,92.203z M5.183,88.667l2.828-2.828l-0.707-0.707L4.476,87.96L5.183,88.667z
	 M8.719,85.131l2.828-2.828l-0.707-0.707l-2.828,2.828L8.719,85.131z M12.254,81.596l2.828-2.828l-0.707-0.707l-2.828,2.828
	L12.254,81.596z M15.79,78.06l2.828-2.828l-0.707-0.707l-2.828,2.828L15.79,78.06z M19.326,74.525l2.828-2.828l-0.707-0.707
	l-2.828,2.828L19.326,74.525z M22.861,70.989l2.828-2.828l-0.707-0.707l-2.828,2.828L22.861,70.989z M26.397,67.454l2.828-2.828
	l-0.707-0.707l-2.828,2.828L26.397,67.454z M29.932,63.918l2.828-2.828l-0.707-0.707l-2.828,2.828L29.932,63.918z M33.468,60.383
	l2.828-2.828l-0.707-0.707l-2.828,2.828L33.468,60.383z M37.003,56.847l2.828-2.828l-0.707-0.707l-2.828,2.828L37.003,56.847z
	 M40.539,53.312l2.828-2.828l-0.707-0.707l-2.828,2.828L40.539,53.312z M44.074,49.776l2.828-2.828l-0.707-0.707l-2.828,2.828
	L44.074,49.776z M47.61,46.241l2.828-2.828l-0.707-0.707l-2.828,2.828L47.61,46.241z M51.145,42.705l2.828-2.828l-0.707-0.707
	l-2.828,2.828L51.145,42.705z M54.681,39.17l2.828-2.828l-0.707-0.707l-2.828,2.828L54.681,39.17z M58.216,35.634l2.828-2.828
	l-0.707-0.707l-2.828,2.828L58.216,35.634z M61.752,32.098l2.828-2.828l-0.707-0.707l-2.828,2.828L61.752,32.098z M65.287,28.563
	l2.828-2.828l-0.707-0.707l-2.828,2.828L65.287,28.563z M68.823,25.027l2.828-2.828l-0.707-0.707l-2.828,2.828L68.823,25.027z
	 M72.359,21.492l2.828-2.828l-0.707-0.707l-2.828,2.828L72.359,21.492z M75.894,17.956l2.828-2.828l-0.707-0.707l-2.828,2.828
	L75.894,17.956z M79.43,14.421l2.828-2.828l-0.707-0.707l-2.828,2.828L79.43,14.421z M82.965,10.885l2.828-2.828L85.086,7.35
	l-2.828,2.828L82.965,10.885z M86.501,7.35l2.828-2.828l-0.707-0.707l-2.828,2.828L86.501,7.35z M90.036,3.814l2.828-2.828
	l-0.707-0.707l-2.828,2.828L90.036,3.814z M93.572,0.279L96.4-2.55l-0.707-0.707l-2.828,2.828L93.572,0.279z M136.595-4.384
	 M-1.291,133.502l2.828-2.828l-0.707-0.707l-2.828,2.828L-1.291,133.502z M2.244,129.966l2.828-2.828l-0.707-0.707l-2.828,2.828
	L2.244,129.966z M5.78,126.431l2.828-2.828l-0.707-0.707l-2.828,2.828L5.78,126.431z M9.316,122.895l2.828-2.828l-0.707-0.707
	l-2.828,2.828L9.316,122.895z M12.851,119.36l2.828-2.828l-0.707-0.707l-2.828,2.828L12.851,119.36z M16.387,115.824l2.828-2.828
	l-0.707-0.707l-2.828,2.828L16.387,115.824z M19.922,112.289l2.828-2.828l-0.707-0.707l-2.828,2.828L19.922,112.289z
	 M23.458,108.753l2.828-2.828l-0.707-0.707l-2.828,2.828L23.458,108.753z M26.993,105.218l2.828-2.828l-0.707-0.707l-2.828,2.828
	L26.993,105.218z M30.529,101.682l2.828-2.828l-0.707-0.707l-2.828,2.828L30.529,101.682z M34.064,98.147l2.828-2.828l-0.707-0.707
	l-2.828,2.828L34.064,98.147z M37.6,94.611l2.828-2.828l-0.707-0.707l-2.828,2.828L37.6,94.611z M41.135,91.076l2.828-2.828
	l-0.707-0.707l-2.828,2.828L41.135,91.076z M44.671,87.54l2.828-2.828l-0.707-0.707l-2.828,2.828L44.671,87.54z M48.206,84.005
	l2.828-2.828l-0.707-0.707l-2.828,2.828L48.206,84.005z M51.742,80.469l2.828-2.828l-0.707-0.707l-2.828,2.828L51.742,80.469z
	 M55.277,76.933l2.828-2.828l-0.707-0.707l-2.828,2.828L55.277,76.933z M58.813,73.398l2.828-2.828l-0.707-0.707l-2.828,2.828
	L58.813,73.398z M62.349,69.862l2.828-2.828l-0.707-0.707l-2.828,2.828L62.349,69.862z M65.884,66.327l2.828-2.828l-0.707-0.707
	l-2.828,2.828L65.884,66.327z M69.42,62.791l2.828-2.828l-0.707-0.707l-2.828,2.828L69.42,62.791z M72.955,59.256l2.828-2.828
	l-0.707-0.707l-2.828,2.828L72.955,59.256z M76.491,55.72l2.828-2.828l-0.707-0.707l-2.828,2.828L76.491,55.72z M80.026,52.185
	l2.828-2.828l-0.707-0.707l-2.828,2.828L80.026,52.185z M83.562,48.649l2.828-2.828l-0.707-0.707l-2.828,2.828L83.562,48.649z
	 M87.097,45.114l2.828-2.828l-0.707-0.707l-2.828,2.828L87.097,45.114z M90.633,41.578l2.828-2.828l-0.707-0.707l-2.828,2.828
	L90.633,41.578z M94.168,38.043l2.828-2.828l-0.707-0.707l-2.828,2.828L94.168,38.043z M97.704,34.507l2.828-2.828l-0.707-0.707
	L96.997,33.8L97.704,34.507z M101.239,30.971l2.828-2.828l-0.707-0.707l-2.828,2.828L101.239,30.971z M104.775,27.436l2.828-2.828
	l-0.707-0.707l-2.828,2.828L104.775,27.436z M108.311,23.9l2.828-2.828l-0.707-0.707l-2.828,2.828L108.311,23.9z M111.846,20.365
	l2.828-2.828l-0.707-0.707l-2.828,2.828L111.846,20.365z M115.382,16.829l2.828-2.828l-0.707-0.707l-2.828,2.828L115.382,16.829z
	 M118.917,13.294l2.828-2.828l-0.707-0.707l-2.828,2.828L118.917,13.294z M122.453,9.758l2.828-2.828l-0.707-0.707l-2.828,2.828
	L122.453,9.758z M125.988,6.223l2.828-2.828l-0.707-0.707l-2.828,2.828L125.988,6.223z M129.524,2.687l2.828-2.828l-0.707-0.707
	l-2.828,2.828L129.524,2.687z M133.059-0.848l2.828-2.828l-0.707-0.707l-2.828,2.828L133.059-0.848z"/>
<text transform="matrix(0.7071 -0.7071 0.7071 0.7071 14.1209 103.8662)" fill="#FFFFFF" font-family="'MyriadPro-Bold'" font-size="16">Requires Upgrade</text>
</svg>
