<?xml version="1.0" encoding="utf-8"?>
<!-- Generator: Adobe Illustrator 17.0.0, SVG Export Plug-In . SVG Version: 6.00 Build 0)  -->
<!DOCTYPE svg PUBLIC "-//W3C//DTD SVG 1.1//EN" "http://www.w3.org/Graphics/SVG/1.1/DTD/svg11.dtd">
<svg version="1.1"
	 id="svg2985" xmlns:dc="http://purl.org/dc/elements/1.1/" xmlns:cc="http://creativecommons.org/ns#" xmlns:rdf="http://www.w3.org/1999/02/22-rdf-syntax-ns#" xmlns:svg="http://www.w3.org/2000/svg"
	 xmlns="http://www.w3.org/2000/svg" xmlns:xlink="http://www.w3.org/1999/xlink" x="0px" y="0px" width="134px" height="134px"
	 viewBox="0 0 134 134" enable-background="new 0 0 134 134" xml:space="preserve">
<rect id="rect3047" x="-60.769" y="39.231" transform="matrix(-0.7071 0.7071 -0.7071 -0.7071 167.9391 39.6874)" fill="#ED1C24" width="273.038" height="30.788"/>
<path id="rect3753" fill="#74C2E7" d="M18.164,93.738l2.828-2.828l-0.707-0.707l-2.828,2.828L18.164,93.738z M21.7,90.203
	l2.828-2.828l-0.707-0.707l-2.828,2.828L21.7,90.203z M25.235,86.667l2.828-2.828l-0.707-0.707l-2.828,2.828L25.235,86.667z
	 M28.771,83.131l2.828-2.828l-0.707-0.707l-2.828,2.828L28.771,83.131z M32.306,79.596l2.828-2.828l-0.707-0.707l-2.828,2.828
	L32.306,79.596z M35.842,76.06l2.828-2.828l-0.707-0.707l-2.828,2.828L35.842,76.06z M39.377,72.525l2.828-2.828l-0.707-0.707
	l-2.828,2.828L39.377,72.525z M42.913,68.989l2.828-2.828l-0.707-0.707l-2.828,2.828L42.913,68.989z M46.448,65.454l2.828-2.828
	l-0.707-0.707l-2.828,2.828L46.448,65.454z M49.984,61.918l2.828-2.828l-0.707-0.707l-2.828,2.828L49.984,61.918z M53.519,58.383
	l2.828-2.828l-0.707-0.707l-2.828,2.828L53.519,58.383z M57.055,54.847l2.828-2.828l-0.707-0.707l-2.828,2.828L57.055,54.847z
	 M60.59,51.312l2.828-2.828l-0.707-0.707l-2.828,2.828L60.59,51.312z M64.126,47.776l2.828-2.828l-0.707-0.707l-2.828,2.828
	L64.126,47.776z M67.661,44.241l2.828-2.828l-0.707-0.707l-2.828,2.828L67.661,44.241z M71.197,40.705l2.828-2.828l-0.707-0.707
	l-2.828,2.828L71.197,40.705z M74.733,37.17l2.828-2.828l-0.707-0.707l-2.828,2.828L74.733,37.17z M78.268,33.634l2.828-2.828
	l-0.707-0.707l-2.828,2.828L78.268,33.634z M81.804,30.098l2.828-2.828l-0.707-0.707l-2.828,2.828L81.804,30.098z M85.339,26.563
	l2.828-2.828l-0.707-0.707l-2.828,2.828L85.339,26.563z M88.875,23.027l2.828-2.828l-0.707-0.707l-2.828,2.828L88.875,23.027z
	 M92.41,19.492l2.828-2.828l-0.707-0.707l-2.828,2.828L92.41,19.492z M95.946,15.956l2.828-2.828l-0.707-0.707l-2.828,2.828
	L95.946,15.956z M99.481,12.421l2.828-2.828l-0.707-0.707l-2.828,2.828L99.481,12.421z M103.017,8.885l2.828-2.828l-0.707-0.707
	l-2.828,2.828L103.017,8.885z M106.552,5.35l2.828-2.828l-0.707-0.707l-2.828,2.828L106.552,5.35z M110.088,1.814l2.828-2.828
	l-0.707-0.707l-2.828,2.828L110.088,1.814z M113.623-1.721l2.828-2.828l-0.707-0.707l-2.828,2.828L113.623-1.721z M156.646-6.384
	 M18.761,131.502l2.828-2.828l-0.707-0.707l-2.828,2.828L18.761,131.502z M22.296,127.966l2.828-2.828l-0.707-0.707l-2.828,2.828
	L22.296,127.966z M25.832,124.431l2.828-2.828l-0.707-0.707l-2.828,2.828L25.832,124.431z M29.367,120.895l2.828-2.828l-0.707-0.707
	l-2.828,2.828L29.367,120.895z M32.903,117.36l2.828-2.828l-0.707-0.707l-2.828,2.828L32.903,117.36z M36.438,113.824l2.828-2.828
	l-0.707-0.707l-2.828,2.828L36.438,113.824z M39.974,110.289l2.828-2.828l-0.707-0.707l-2.828,2.828L39.974,110.289z
	 M43.509,106.753l2.828-2.828l-0.707-0.707l-2.828,2.828L43.509,106.753z M47.045,103.218l2.828-2.828l-0.707-0.707l-2.828,2.828
	L47.045,103.218z M50.58,99.682l2.828-2.828l-0.707-0.707l-2.828,2.828L50.58,99.682z M54.116,96.147l2.828-2.828l-0.707-0.707
	l-2.828,2.828L54.116,96.147z M57.651,92.611l2.828-2.828l-0.707-0.707l-2.828,2.828L57.651,92.611z M61.187,89.076l2.828-2.828
	l-0.707-0.707l-2.828,2.828L61.187,89.076z M64.723,85.54l2.828-2.828l-0.707-0.707l-2.828,2.828L64.723,85.54z M68.258,82.005
	l2.828-2.828l-0.707-0.707l-2.828,2.828L68.258,82.005z M71.794,78.469l2.828-2.828l-0.707-0.707l-2.828,2.828L71.794,78.469z
	 M75.329,74.933l2.828-2.828l-0.707-0.707l-2.828,2.828L75.329,74.933z M78.865,71.398l2.828-2.828l-0.707-0.707l-2.828,2.828
	L78.865,71.398z M82.4,67.862l2.828-2.828l-0.707-0.707l-2.828,2.828L82.4,67.862z M85.936,64.327l2.828-2.828l-0.707-0.707
	l-2.828,2.828L85.936,64.327z M89.471,60.791l2.828-2.828l-0.707-0.707l-2.828,2.828L89.471,60.791z M93.007,57.256l2.828-2.828
	l-0.707-0.707L92.3,56.549L93.007,57.256z M96.542,53.72l2.828-2.828l-0.707-0.707l-2.828,2.828L96.542,53.72z M100.078,50.185
	l2.828-2.828l-0.707-0.707l-2.828,2.828L100.078,50.185z M103.613,46.649l2.828-2.828l-0.707-0.707l-2.828,2.828L103.613,46.649z
	 M107.149,43.114l2.828-2.828l-0.707-0.707l-2.828,2.828L107.149,43.114z M110.685,39.578l2.828-2.828l-0.707-0.707l-2.828,2.828
	L110.685,39.578z M114.22,36.043l2.828-2.828l-0.707-0.707l-2.828,2.828L114.22,36.043z M117.756,32.507l2.828-2.828l-0.707-0.707
	l-2.828,2.828L117.756,32.507z M121.291,28.971l2.828-2.828l-0.707-0.707l-2.828,2.828L121.291,28.971z M124.827,25.436l2.828-2.828
	l-0.707-0.707l-2.828,2.828L124.827,25.436z M128.362,21.9l2.828-2.828l-0.707-0.707l-2.828,2.828L128.362,21.9z M131.898,18.365
	l2.828-2.828l-0.707-0.707l-2.828,2.828L131.898,18.365z M135.433,14.829l2.828-2.828l-0.707-0.707l-2.828,2.828L135.433,14.829z
	 M138.969,11.294l2.828-2.828l-0.707-0.707l-2.828,2.828L138.969,11.294z M142.504,7.758l2.828-2.828l-0.707-0.707l-2.828,2.828
	L142.504,7.758z M146.04,4.223l2.828-2.828l-0.707-0.707l-2.828,2.828L146.04,4.223z M149.575,0.687l2.828-2.828l-0.707-0.707
	l-2.828,2.828L149.575,0.687z M153.111-2.848l2.828-2.828l-0.707-0.707l-2.828,2.828L153.111-2.848z"/>
<text transform="matrix(0.7071 -0.7071 0.7071 0.7071 23.1209 112.8662)" fill="#FFFFFF" font-family="'MyriadPro-Bold'" font-size="16">Requires Upgrade</text>
</svg>
