<?xml version="1.0" encoding="UTF-8" standalone="no"?>
<!-- Generator: Adobe Illustrator 16.0.2, SVG Export Plug-In . SVG Version: 6.00 Build 0)  -->

<svg
   xmlns:dc="http://purl.org/dc/elements/1.1/"
   xmlns:cc="http://creativecommons.org/ns#"
   xmlns:rdf="http://www.w3.org/1999/02/22-rdf-syntax-ns#"
   xmlns:svg="http://www.w3.org/2000/svg"
   xmlns="http://www.w3.org/2000/svg"
   xmlns:xlink="http://www.w3.org/1999/xlink"
   xmlns:sodipodi="http://sodipodi.sourceforge.net/DTD/sodipodi-0.dtd"
   xmlns:inkscape="http://www.inkscape.org/namespaces/inkscape"
   version="1.1"
   id="svg2"
   x="0px"
   y="0px"
   width="95.636917"
   height="91.549255"
   viewBox="0 0 95.636917 91.549255"
   enable-background="new 0 0 128 138"
   xml:space="preserve"
   inkscape:version="0.48.4 r9939"
   sodipodi:docname="soviet-logo.svg"
   inkscape:export-filename="/home/matthias/Projekte/OpenRA-Resources/openraData/static/images/soviet-logo-fallback.png"
   inkscape:export-xdpi="89.400627"
   inkscape:export-ydpi="89.400627"><metadata
     id="metadata21"><rdf:RDF><cc:Work
         rdf:about=""><dc:format>image/svg+xml</dc:format><dc:type
           rdf:resource="http://purl.org/dc/dcmitype/StillImage" /><dc:title></dc:title></cc:Work></rdf:RDF></metadata><defs
     id="defs19"><linearGradient
       y2="92.378876"
       x2="89.046608"
       y1="69.056839"
       x1="65.91964"
       spreadMethod="pad"
       gradientTransform="matrix(0.81355932,0,0,0.81355932,-4.3160011,-4.6223701)"
       gradientUnits="userSpaceOnUse"
       id="linearGradient3032"
       xlink:href="#linearGradient3777"
       inkscape:collect="always" /><linearGradient
       y2="236.97458"
       x2="173.77965"
       y1="128.49998"
       x1="118.38983"
       gradientUnits="userSpaceOnUse"
       id="linearGradient3030"
       xlink:href="#linearGradient3761"
       inkscape:collect="always" /><linearGradient
       gradientUnits="userSpaceOnUse"
       xlink:href="#linearGradient3799"
       id="linearGradient3932"
       y2="236.97458"
       x2="173.77965"
       y1="128.49998"
       x1="118.38983" /><linearGradient
       gradientTransform="matrix(0.81355932,0,0,0.81355932,-4.3160011,-4.6223701)"
       spreadMethod="pad"
       gradientUnits="userSpaceOnUse"
       xlink:href="#linearGradient3777"
       id="linearGradient3924"
       y2="92.378876"
       x2="89.046608"
       y1="69.056839"
       x1="65.91964" /><linearGradient
       gradientUnits="userSpaceOnUse"
       xlink:href="#linearGradient3799"
       id="linearGradient3887"
       y2="128.5"
       x2="279"
       y1="128.5"
       x1="-21" /><linearGradient
       gradientUnits="userSpaceOnUse"
       xlink:href="#linearGradient3799"
       id="linearGradient3885"
       y2="128.5"
       x2="279"
       y1="128.5"
       x1="-21" /><linearGradient
       gradientUnits="userSpaceOnUse"
       xlink:href="#linearGradient3799"
       id="linearGradient3880"
       y2="128.5"
       x2="279"
       y1="128.5"
       x1="-21" /><linearGradient
       gradientUnits="userSpaceOnUse"
       xlink:href="#linearGradient3799"
       id="linearGradient3878"
       y2="128.5"
       x2="279"
       y1="128.5"
       x1="-21" /><linearGradient
       gradientUnits="userSpaceOnUse"
       xlink:href="#linearGradient3799"
       id="linearGradient3876"
       y2="128.5"
       x2="279"
       y1="128.5"
       x1="-21" /><linearGradient
       gradientUnits="userSpaceOnUse"
       xlink:href="#linearGradient3799"
       id="linearGradient3870"
       y2="128.5"
       x2="279"
       y1="128.5"
       x1="-21" /><linearGradient
       gradientUnits="userSpaceOnUse"
       xlink:href="#linearGradient3799"
       id="linearGradient3868"
       y2="128.5"
       x2="279"
       y1="128.5"
       x1="-21" /><linearGradient
       gradientUnits="userSpaceOnUse"
       xlink:href="#linearGradient3799"
       id="linearGradient3866"
       y2="128.5"
       x2="279"
       y1="128.5"
       x1="-21" /><linearGradient
       gradientUnits="userSpaceOnUse"
       xlink:href="#linearGradient3777"
       id="linearGradient3864"
       y2="126"
       x2="225"
       y1="126"
       x1="16" /><linearGradient
       gradientUnits="userSpaceOnUse"
       xlink:href="#linearGradient3777"
       id="linearGradient3862"
       y2="126"
       x2="225"
       y1="126"
       x1="16" /><linearGradient
       gradientUnits="userSpaceOnUse"
       xlink:href="#linearGradient3777"
       id="linearGradient3856"
       y2="126"
       x2="225"
       y1="126"
       x1="16" /><linearGradient
       gradientUnits="userSpaceOnUse"
       xlink:href="#linearGradient3777"
       id="linearGradient3854"
       y2="126"
       x2="225"
       y1="126"
       x1="16" /><linearGradient
       gradientUnits="userSpaceOnUse"
       xlink:href="#linearGradient3777"
       id="linearGradient3852"
       y2="126"
       x2="225"
       y1="126"
       x1="16" /><linearGradient
       gradientUnits="userSpaceOnUse"
       xlink:href="#linearGradient3777"
       id="linearGradient3845"
       y2="126"
       x2="225"
       y1="126"
       x1="16" /><linearGradient
       gradientUnits="userSpaceOnUse"
       xlink:href="#linearGradient3777"
       id="linearGradient3843"
       y2="126"
       x2="225"
       y1="126"
       x1="16" /><linearGradient
       gradientUnits="userSpaceOnUse"
       xlink:href="#linearGradient3777"
       id="linearGradient3841"
       y2="126"
       x2="225"
       y1="126"
       x1="16" /><linearGradient
       gradientUnits="userSpaceOnUse"
       xlink:href="#linearGradient3777"
       id="linearGradient3839"
       y2="126"
       x2="225"
       y1="126"
       x1="16" /><linearGradient
       gradientUnits="userSpaceOnUse"
       xlink:href="#linearGradient3777"
       id="linearGradient3837"
       y2="126"
       x2="225"
       y1="126"
       x1="16" /><linearGradient
       gradientUnits="userSpaceOnUse"
       xlink:href="#linearGradient3777"
       id="linearGradient3835"
       y2="126"
       x2="225"
       y1="126"
       x1="16" /><linearGradient
       gradientUnits="userSpaceOnUse"
       xlink:href="#linearGradient3777"
       id="linearGradient3833"
       y2="126"
       x2="225"
       y1="126"
       x1="16" /><linearGradient
       gradientUnits="userSpaceOnUse"
       xlink:href="#linearGradient3799"
       id="linearGradient3805"
       y2="128.5"
       x2="279"
       y1="128.5"
       x1="-21" /><linearGradient
       gradientUnits="userSpaceOnUse"
       xlink:href="#linearGradient3777"
       id="linearGradient3797"
       y2="126"
       x2="225"
       y1="126"
       x1="16" /><linearGradient
       id="linearGradient3761"><stop
         offset="0"
         style="stop-color:#2c4aa9;stop-opacity:1;"
         id="stop3763" /></linearGradient><linearGradient
       id="linearGradient3767"><stop
         offset="0"
         style="stop-color:#000000;stop-opacity:1"
         id="stop3769" /></linearGradient><linearGradient
       id="linearGradient3777"><stop
         offset="0"
         style="stop-color:#0495d7;stop-opacity:1;"
         id="stop3779" /><stop
         offset="1"
         style="stop-color:#2c4aa9;stop-opacity:1;"
         id="stop3781" /></linearGradient><linearGradient
       id="linearGradient3799"><stop
         offset="0"
         style="stop-color:#0792df;stop-opacity:1;"
         id="stop3801" /><stop
         offset="1"
         style="stop-color:#2c4aa9;stop-opacity:1;"
         id="stop3803" /></linearGradient><linearGradient
       inkscape:collect="always"
       xlink:href="#linearGradient3777"
       id="linearGradient3094"
       gradientUnits="userSpaceOnUse"
       gradientTransform="matrix(0.76271186,0,0,0.76271186,12.975403,14.27245)"
       spreadMethod="pad"
       x1="65.91964"
       y1="69.056839"
       x2="89.046608"
       y2="92.378876" /><linearGradient
       inkscape:collect="always"
       xlink:href="#linearGradient3761"
       id="linearGradient3875"
       gradientUnits="userSpaceOnUse"
       x1="118.38983"
       y1="128.49998"
       x2="173.77965"
       y2="236.97458" /><linearGradient
       inkscape:collect="always"
       xlink:href="#linearGradient3777"
       id="linearGradient3877"
       gradientUnits="userSpaceOnUse"
       gradientTransform="matrix(0.76271186,0,0,0.76271186,12.975403,14.27245)"
       spreadMethod="pad"
       x1="65.91964"
       y1="69.056839"
       x2="89.046608"
       y2="92.378876" /></defs><sodipodi:namedview
     pagecolor="#ffffff"
     bordercolor="#666666"
     borderopacity="1"
     objecttolerance="10"
     gridtolerance="10"
     guidetolerance="10"
     inkscape:pageopacity="0"
     inkscape:pageshadow="2"
     inkscape:window-width="1366"
     inkscape:window-height="721"
     id="namedview17"
     showgrid="false"
     fit-margin-top="0"
     fit-margin-left="0"
     fit-margin-right="0"
     fit-margin-bottom="0"
     inkscape:zoom="3.4202899"
     inkscape:cx="33.81694"
     inkscape:cy="31.312352"
     inkscape:window-x="-2"
     inkscape:window-y="-3"
     inkscape:window-maximized="1"
     inkscape:current-layer="svg2" /><g
     id="g3871"
     transform="translate(-14.173402,-17.394195)"><polygon
       points="15,102.333 100.333,100.333 130.5,19.333 158,100.333 243,102.667 175.819,154.676 199.667,237.667 129.5,188.333 57.667,237.667 82.667,154 "
       transform="matrix(0.38135593,0,0,0.38135593,12.826739,14.569778)"
       id="polygon11"
       style="fill:url(#linearGradient3875);fill-opacity:1;stroke:#ffffff;stroke-width:8;stroke-miterlimit:10;stroke-opacity:1" /><path
       d="m 41.682798,60.713847 c -0.126991,0.63572 6.525,7.536737 7.118771,7.372754 0.327967,-0.09038 5.338983,-4.703263 5.338983,-4.703263 l 13.093094,14.11017 c 0,0 -3.559195,2.033771 -7.372755,1.652415 -3.813559,-0.381356 -6.063559,-1.940721 -10.423601,-6.737034 -1.271441,-1.398433 -3.178221,0.889703 -3.178221,0.889703 l -2.288136,-0.126991 c 0,0 -2.796482,1.016694 -1.906779,2.796483 0.539237,1.078475 -13.148771,5.616991 -7.881483,11.695044 4.957627,5.720335 11.186313,-6.101697 12.076398,-6.737417 0.890085,-0.63572 8.135467,14.491527 28.347331,5.338983 0,0 2.778178,2.896784 3.050847,2.918516 0.395847,0.03206 7.245763,-6.064702 7.245763,-6.605084 0,-0.460678 -3.813559,-4.067542 -3.813559,-4.067542 0,0 9.152538,-10.805339 -1.199746,-26.424154 -0.758518,-1.144447 -4.672754,-6.328219 -9.938898,-9.742499 -3.05428,-1.98 -6.936865,-4.307416 -12.88678,-6.29123 -1.90678,-0.635719 2.282034,2.822035 6.889576,7.473434 2.694661,2.720593 5.150212,6.025424 6.839237,8.289152 5.974704,8.008475 5.204365,15.42089 2.923857,19.067796 0,0 -6.80034,-7.302966 -12.966103,-13.983178 0,0 5.656653,-5.593347 5.338984,-5.974704 -0.996864,-1.197076 -0.893517,-1.276016 -2.034153,-2.033771 0,0 -1.367542,0.425594 -3.441738,0.504153 -2.927287,0.110975 -6.883855,-0.09038 -7.108855,0.131186 -0.764618,0.75356 -11.631356,10.233687 -11.822034,11.187078 z"
       id="path3813"
       style="fill:url(#linearGradient3877);fill-opacity:1;fill-rule:nonzero;stroke:#ffffff;stroke-width:1.67796612;stroke-miterlimit:10;stroke-opacity:1;stroke-dasharray:none"
       inkscape:connector-curvature="0" /></g></svg>