<?xml version="1.0" encoding="UTF-8" standalone="no"?>
<!-- Created with Inkscape (http://www.inkscape.org/) -->
<svg
   xmlns:dc="http://purl.org/dc/elements/1.1/"
   xmlns:cc="http://web.resource.org/cc/"
   xmlns:rdf="http://www.w3.org/1999/02/22-rdf-syntax-ns#"
   xmlns:svg="http://www.w3.org/2000/svg"
   xmlns="http://www.w3.org/2000/svg"
   xmlns:sodipodi="http://sodipodi.sourceforge.net/DTD/sodipodi-0.dtd"
   xmlns:inkscape="http://www.inkscape.org/namespaces/inkscape"
   version="1.0"
   width="467.54001"
   height="473.39499"
   id="svg2"
   sodipodi:version="0.32"
   inkscape:version="0.45pre1"
   sodipodi:docname="UNGDI.svg"
   inkscape:output_extension="org.inkscape.output.svg.inkscape"
   sodipodi:docbase="M:\Data"
   sodipodi:modified="true">
  <metadata
     id="metadata6">
    <rdf:RDF>
      <cc:Work
         rdf:about="">
        <dc:format>image/svg+xml</dc:format>
        <dc:type
           rdf:resource="http://purl.org/dc/dcmitype/StillImage" />
      </cc:Work>
    </rdf:RDF>
  </metadata>
  <sodipodi:namedview
     inkscape:window-height="573"
     inkscape:window-width="744"
     inkscape:pageshadow="2"
     inkscape:pageopacity="0.0"
     guidetolerance="10.0"
     gridtolerance="10.0"
     objecttolerance="10.0"
     borderopacity="1.0"
     bordercolor="#666666"
     pagecolor="#ffffff"
     id="base"
     inkscape:zoom="1.1262445"
     inkscape:cx="307.17328"
     inkscape:cy="-5.0353863"
     inkscape:window-x="579"
     inkscape:window-y="148"
     inkscape:current-layer="svg2"
     showborder="false"
     inkscape:showpageshadow="false" />
  <defs
     id="defs5" />
  <path
     d="M 321.19072,462.63859 C 316.34177,456.57921 312.52435,451.47398 312.70758,451.29363 C 312.89081,451.11328 317.76572,449.09151 323.54072,446.80082 C 329.31572,444.51012 334.36112,442.32737 334.75272,441.95025 C 335.31041,441.4132 306.98467,406.09707 301.02129,399.89438 C 300.04369,398.87754 293.77486,398.13257 277.8608,397.14204 C 265.85976,396.39506 255.58274,395.61419 255.02298,395.40676 C 254.46322,395.19933 249.54391,380.68788 244.09117,363.1591 L 234.17711,331.28859 L 227.10892,326.48208 C 223.22141,323.8385 213.96572,317.41101 206.54072,312.19877 C 173.09325,288.71911 142.41361,267.34835 130.19567,259.01847 C 127.13002,256.92839 117.63512,254.35769 83.354004,246.33631 L 40.357384,236.2756 L 20.051214,214.28209 C 8.8828332,202.18567 -0.13948681,192.16465 0.0016331891,192.01317 C 0.21116319,191.78827 175.19037,219.72078 183.54072,221.31212 C 185.65408,221.71487 186.54335,221.01707 189.29072,216.80019 C 192.76164,211.47273 193.25571,209.78859 191.34769,209.78859 C 190.69153,209.78859 177.52903,206.22527 162.09769,201.8701 C 146.66636,197.51494 123.24072,190.94005 110.04072,187.25925 C 96.840714,183.57845 85.732174,180.27927 85.355064,179.92774 C 84.977954,179.57621 86.491054,174.8617 88.717524,169.45105 C 90.943994,164.04041 92.377534,159.27622 91.903184,158.86398 C 91.428824,158.45174 85.640714,156.19463 79.040714,153.84819 C 72.440714,151.50174 66.520804,149.06592 65.885344,148.43526 C 64.174524,146.73733 35.458124,93.528939 35.772064,92.638589 C 35.919824,92.219519 64.840714,104.71654 100.04071,120.40975 C 135.24072,136.10295 171.01572,152.01336 179.54072,155.76622 C 188.06572,159.51907 202.53746,165.95235 211.70014,170.0624 L 228.35955,177.53522 L 232.91789,174.4119 C 235.42498,172.69408 237.49074,171.00776 237.50847,170.66452 C 237.53951,170.06387 228.98169,165.09411 161.04072,126.25753 C 143.99072,116.51137 129.84092,108.35649 129.59671,108.13557 C 129.3525,107.91465 132.0525,104.7914 135.59671,101.19502 L 142.04072,94.656139 L 139.54072,92.650099 C 138.16572,91.546779 131.67675,86.682992 125.12078,81.841682 L 113.20083,73.039292 L 104.9707,49.163946 C 100.44413,36.032503 94.741014,19.598579 92.297104,12.644115 L 87.853634,-0.00036573227 L 103.94717,11.577771 C 112.79863,17.945747 129.71572,30.140606 141.54072,38.677459 C 153.36572,47.214312 172.49072,61.000546 184.04072,69.313532 C 209.20308,87.423872 249.52997,116.48147 269.54072,130.92068 C 277.51572,136.67522 304.87139,156.38262 330.3311,174.7149 C 355.79081,193.04718 376.49081,208.42762 376.3311,208.89366 C 376.17139,209.3597 362.40435,221.67097 345.73768,236.25203 L 315.43465,262.76305 L 319.73768,264.82711 C 322.10435,265.96234 336.64072,272.40327 352.04072,279.14028 L 380.04072,291.3894 L 382.14278,297.27815 C 383.97355,302.40691 385.23186,303.98588 391.89278,309.51286 C 400.27437,316.46758 400.44458,316.91508 398.92498,328.00178 C 398.42181,331.67276 397.73618,332.82336 395.17498,334.29486 C 393.45114,335.28527 388.321,338.49614 383.77467,341.43013 C 374.59296,347.35558 374.70738,347.43794 378.19312,337.41286 C 380.68853,330.23602 380.95953,330.45605 365.13397,326.81007 L 350.72721,323.49097 L 324.88397,332.24378 C 310.67018,337.05783 298.75258,341.28729 298.40042,341.64259 C 298.04825,341.99789 301.00229,347.46359 304.96495,353.78859 C 308.92761,360.11359 321.53909,380.36359 332.99046,398.78859 C 344.44183,417.21359 354.31278,432.81669 354.92592,433.46215 C 355.772,434.35283 360.25904,433.09216 373.54072,428.23217 C 383.16572,424.71023 391.33977,421.81962 391.70528,421.80861 C 392.33945,421.78951 390.88032,425.44726 379.02166,453.60406 L 373.83481,465.91953 L 373.19646,460.60406 C 372.84536,457.68055 372.55419,452.92609 372.54941,450.03859 C 372.54256,445.90093 372.20242,444.78859 370.94403,444.78859 C 368.88826,444.78859 330.28315,455.85534 329.29,456.72936 C 328.8771,457.09273 328.98824,460.93107 329.53697,465.25901 C 330.0857,469.58695 330.41594,473.24671 330.27083,473.39181 C 330.12572,473.53692 326.03967,468.69797 321.19072,462.63859 z M 257.54072,441.20575 C 255.61572,440.98133 249.76572,440.30526 244.54072,439.70337 C 232.00167,438.25896 211.57961,432.97956 198.54072,427.8117 C 144.51477,406.39894 102.44688,362.02488 83.958034,306.94754 C 79.020694,292.23946 73.335744,263.49516 74.678244,260.02704 C 74.954494,259.3134 106.42146,265.80302 124.16016,270.23198 C 125.98851,270.68848 126.37525,271.75876 126.97608,278.02487 C 132.50586,335.69528 172.78792,386.85314 227.54072,405.74105 C 242.2567,410.81758 254.29269,412.90558 272.04072,413.46088 L 289.04072,413.99278 L 300.29072,425.12437 C 306.47822,431.24675 311.54072,436.54435 311.54072,436.89682 C 311.54072,439.08017 268.65878,442.50194 257.54072,441.20575 z M 358.76016,406.1403 C 355.33947,399.82422 352.56994,394.34873 352.60566,393.97255 C 352.64138,393.59637 356.55356,390.81359 361.29941,387.78859 C 371.15913,381.504 392.53251,360.85393 399.1251,351.24297 C 418.48457,323.01993 426.85542,296.65603 426.89288,263.78859 C 426.92195,238.28935 422.44392,219.18125 411.07409,196.28859 C 387.14637,148.11117 340.8493,117.43356 285.79463,113.27525 C 274.84579,112.44828 279.68426,115.51635 237.15696,82.434062 L 206.2732,58.409369 L 210.15696,57.043313 C 233.05447,48.989447 269.85845,45.673392 296.69597,49.246109 C 394.49898,62.266035 467.54072,145.6459 467.54072,244.27176 C 467.54072,275.60278 461.13799,303.4124 447.50647,331.28859 C 431.84716,363.31155 407.32826,390.89884 377.54072,410.0101 C 363.75418,418.85534 365.88413,419.29423 358.76016,406.1403 z "
     style="fill:#000000"
     id="path2179" />
</svg>
