<?xml version="1.0" encoding="UTF-8" standalone="no"?>
<!-- Created with Inkscape (http://www.inkscape.org/) -->

<svg
   xmlns:dc="http://purl.org/dc/elements/1.1/"
   xmlns:cc="http://creativecommons.org/ns#"
   xmlns:rdf="http://www.w3.org/1999/02/22-rdf-syntax-ns#"
   xmlns:svg="http://www.w3.org/2000/svg"
   xmlns="http://www.w3.org/2000/svg"
   xmlns:xlink="http://www.w3.org/1999/xlink"
   version="1.1"
   width="128"
   height="138"
   viewBox="0 0 128 138"
   id="svg2"
   xml:space="preserve"><metadata
     id="metadata28"><rdf:RDF><cc:Work
         rdf:about=""><dc:format>image/svg+xml</dc:format><dc:type
           rdf:resource="http://purl.org/dc/dcmitype/StillImage" /><dc:title></dc:title></cc:Work></rdf:RDF></metadata><defs
     id="defs26"><linearGradient
       id="linearGradient3799"><stop
         id="stop3801"
         style="stop-color:#ff0000;stop-opacity:1"
         offset="0" /><stop
         id="stop3803"
         style="stop-color:#440000;stop-opacity:1"
         offset="1" /></linearGradient><linearGradient
       id="linearGradient3777"><stop
         id="stop3779"
         style="stop-color:#ffd300;stop-opacity:1"
         offset="0" /><stop
         id="stop3781"
         style="stop-color:#a07100;stop-opacity:1"
         offset="1" /></linearGradient><linearGradient
       id="linearGradient3767"><stop
         id="stop3769"
         style="stop-color:#000000;stop-opacity:1"
         offset="0" /></linearGradient><linearGradient
       id="linearGradient3761"><stop
         id="stop3763"
         style="stop-color:#ffd300;stop-opacity:1"
         offset="0" /></linearGradient><linearGradient
       x1="16"
       y1="126"
       x2="225"
       y2="126"
       id="linearGradient3797"
       xlink:href="#linearGradient3777"
       gradientUnits="userSpaceOnUse" /><linearGradient
       x1="-21"
       y1="128.5"
       x2="279"
       y2="128.5"
       id="linearGradient3805"
       xlink:href="#linearGradient3799"
       gradientUnits="userSpaceOnUse" /><linearGradient
       x1="16"
       y1="126"
       x2="225"
       y2="126"
       id="linearGradient3833"
       xlink:href="#linearGradient3777"
       gradientUnits="userSpaceOnUse" /><linearGradient
       x1="16"
       y1="126"
       x2="225"
       y2="126"
       id="linearGradient3835"
       xlink:href="#linearGradient3777"
       gradientUnits="userSpaceOnUse" /><linearGradient
       x1="16"
       y1="126"
       x2="225"
       y2="126"
       id="linearGradient3837"
       xlink:href="#linearGradient3777"
       gradientUnits="userSpaceOnUse" /><linearGradient
       x1="16"
       y1="126"
       x2="225"
       y2="126"
       id="linearGradient3839"
       xlink:href="#linearGradient3777"
       gradientUnits="userSpaceOnUse" /><linearGradient
       x1="16"
       y1="126"
       x2="225"
       y2="126"
       id="linearGradient3841"
       xlink:href="#linearGradient3777"
       gradientUnits="userSpaceOnUse" /><linearGradient
       x1="16"
       y1="126"
       x2="225"
       y2="126"
       id="linearGradient3843"
       xlink:href="#linearGradient3777"
       gradientUnits="userSpaceOnUse" /><linearGradient
       x1="16"
       y1="126"
       x2="225"
       y2="126"
       id="linearGradient3845"
       xlink:href="#linearGradient3777"
       gradientUnits="userSpaceOnUse" /><linearGradient
       x1="16"
       y1="126"
       x2="225"
       y2="126"
       id="linearGradient3852"
       xlink:href="#linearGradient3777"
       gradientUnits="userSpaceOnUse" /><linearGradient
       x1="16"
       y1="126"
       x2="225"
       y2="126"
       id="linearGradient3854"
       xlink:href="#linearGradient3777"
       gradientUnits="userSpaceOnUse" /><linearGradient
       x1="16"
       y1="126"
       x2="225"
       y2="126"
       id="linearGradient3856"
       xlink:href="#linearGradient3777"
       gradientUnits="userSpaceOnUse" /><linearGradient
       x1="16"
       y1="126"
       x2="225"
       y2="126"
       id="linearGradient3862"
       xlink:href="#linearGradient3777"
       gradientUnits="userSpaceOnUse" /><linearGradient
       x1="16"
       y1="126"
       x2="225"
       y2="126"
       id="linearGradient3864"
       xlink:href="#linearGradient3777"
       gradientUnits="userSpaceOnUse" /><linearGradient
       x1="-21"
       y1="128.5"
       x2="279"
       y2="128.5"
       id="linearGradient3866"
       xlink:href="#linearGradient3799"
       gradientUnits="userSpaceOnUse" /><linearGradient
       x1="-21"
       y1="128.5"
       x2="279"
       y2="128.5"
       id="linearGradient3868"
       xlink:href="#linearGradient3799"
       gradientUnits="userSpaceOnUse" /><linearGradient
       x1="-21"
       y1="128.5"
       x2="279"
       y2="128.5"
       id="linearGradient3870"
       xlink:href="#linearGradient3799"
       gradientUnits="userSpaceOnUse" /><linearGradient
       x1="-21"
       y1="128.5"
       x2="279"
       y2="128.5"
       id="linearGradient3876"
       xlink:href="#linearGradient3799"
       gradientUnits="userSpaceOnUse" /><linearGradient
       x1="-21"
       y1="128.5"
       x2="279"
       y2="128.5"
       id="linearGradient3878"
       xlink:href="#linearGradient3799"
       gradientUnits="userSpaceOnUse" /><linearGradient
       x1="-21"
       y1="128.5"
       x2="279"
       y2="128.5"
       id="linearGradient3880"
       xlink:href="#linearGradient3799"
       gradientUnits="userSpaceOnUse" /><linearGradient
       x1="-21"
       y1="128.5"
       x2="279"
       y2="128.5"
       id="linearGradient3885"
       xlink:href="#linearGradient3799"
       gradientUnits="userSpaceOnUse" /><linearGradient
       x1="-21"
       y1="128.5"
       x2="279"
       y2="128.5"
       id="linearGradient3887"
       xlink:href="#linearGradient3799"
       gradientUnits="userSpaceOnUse" /><linearGradient
       x1="65.91964"
       y1="69.056839"
       x2="89.046608"
       y2="92.378876"
       id="linearGradient3924"
       xlink:href="#linearGradient3777"
       gradientUnits="userSpaceOnUse"
       spreadMethod="pad" /><linearGradient
       x1="118.38983"
       y1="128.49998"
       x2="173.77965"
       y2="236.97458"
       id="linearGradient3932"
       xlink:href="#linearGradient3799"
       gradientUnits="userSpaceOnUse" /><linearGradient
       x1="118.38983"
       y1="128.49998"
       x2="173.77965"
       y2="236.97458"
       id="linearGradient3875"
       xlink:href="#linearGradient3761-2"
       gradientUnits="userSpaceOnUse" /><linearGradient
       id="linearGradient3761-2"><stop
         id="stop3763-0"
         style="stop-color:#2c4aa9;stop-opacity:1"
         offset="0" /></linearGradient><linearGradient
       x1="65.91964"
       y1="69.056839"
       x2="89.046608"
       y2="92.378876"
       id="linearGradient3877"
       xlink:href="#linearGradient3777-9"
       gradientUnits="userSpaceOnUse"
       gradientTransform="matrix(0.76271186,0,0,0.76271186,12.975403,14.27245)"
       spreadMethod="pad" /><linearGradient
       id="linearGradient3777-9"><stop
         id="stop3779-7"
         style="stop-color:#0495d7;stop-opacity:1"
         offset="0" /><stop
         id="stop3781-9"
         style="stop-color:#2c4aa9;stop-opacity:1"
         offset="1" /></linearGradient><linearGradient
       x1="65.91964"
       y1="69.056839"
       x2="89.046608"
       y2="92.378876"
       id="linearGradient3043"
       xlink:href="#linearGradient3777-9"
       gradientUnits="userSpaceOnUse"
       gradientTransform="matrix(0.76271186,0,0,0.76271186,12.975403,14.27245)"
       spreadMethod="pad" /></defs><g
     transform="matrix(1.3833333,0,0,1.3833333,-22.351705,-23.792619)"
     id="g3871"><polygon
       points="100.333,100.333 130.5,19.333 158,100.333 243,102.667 175.819,154.676 199.667,237.667 129.5,188.333 57.667,237.667 82.667,154 15,102.333 "
       transform="matrix(0.38135593,0,0,0.38135593,12.826739,14.569778)"
       id="polygon11-7"
       style="fill:url(#linearGradient3875);fill-opacity:1;stroke:#ffffff;stroke-width:8;stroke-miterlimit:10;stroke-opacity:1" /><path
       d="m 41.682798,60.713847 c -0.126991,0.63572 6.525,7.536737 7.118771,7.372754 0.327967,-0.09038 5.338983,-4.703263 5.338983,-4.703263 l 13.093094,14.11017 c 0,0 -3.559195,2.033771 -7.372755,1.652415 -3.813559,-0.381356 -6.063559,-1.940721 -10.423601,-6.737034 -1.271441,-1.398433 -3.178221,0.889703 -3.178221,0.889703 l -2.288136,-0.126991 c 0,0 -2.796482,1.016694 -1.906779,2.796483 0.539237,1.078475 -13.148771,5.616991 -7.881483,11.695044 4.957627,5.720335 11.186313,-6.101697 12.076398,-6.737417 0.890085,-0.63572 8.135467,14.491527 28.347331,5.338983 0,0 2.778178,2.896784 3.050847,2.918516 0.395847,0.03206 7.245763,-6.064702 7.245763,-6.605084 0,-0.460678 -3.813559,-4.067542 -3.813559,-4.067542 0,0 9.152538,-10.805339 -1.199746,-26.424154 -0.758518,-1.144447 -4.672754,-6.328219 -9.938898,-9.742499 -3.05428,-1.98 -6.936865,-4.307416 -12.88678,-6.29123 -1.90678,-0.635719 2.282034,2.822035 6.889576,7.473434 2.694661,2.720593 5.150212,6.025424 6.839237,8.289152 5.974704,8.008475 5.204365,15.42089 2.923857,19.067796 0,0 -6.80034,-7.302966 -12.966103,-13.983178 0,0 5.656653,-5.593347 5.338984,-5.974704 -0.996864,-1.197076 -0.893517,-1.276016 -2.034153,-2.033771 0,0 -1.367542,0.425594 -3.441738,0.504153 -2.927287,0.110975 -6.883855,-0.09038 -7.108855,0.131186 -0.764618,0.75356 -11.631356,10.233687 -11.822034,11.187078 z"
       id="path3813-9"
       style="fill:url(#linearGradient3043);fill-opacity:1;fill-rule:nonzero;stroke:#ffffff;stroke-width:1.67796612;stroke-miterlimit:10;stroke-opacity:1;stroke-dasharray:none" /></g></svg>